<svg xmlns="http://www.w3.org/2000/svg" xmlns:xlink="http://www.w3.org/1999/xlink" width="40" zoomAndPan="magnify" viewBox="0 0 30 30.000001" height="40" preserveAspectRatio="xMidYMid meet" version="1.0"><defs><clipPath id="c2e843e57a"><path d="M 0.484375 0 L 29.515625 0 L 29.515625 29.03125 L 0.484375 29.03125 Z M 0.484375 0 " clip-rule="nonzero"/></clipPath><clipPath id="6bda25ac5f"><path d="M 3.386719 14 L 11 14 L 11 20 L 3.386719 20 Z M 3.386719 14 " clip-rule="nonzero"/></clipPath><clipPath id="654e011a32"><path d="M 19 14 L 26.613281 14 L 26.613281 20 L 19 20 Z M 19 14 " clip-rule="nonzero"/></clipPath><clipPath id="f03bf1fc57"><path d="M 11 7.335938 L 19 7.335938 L 19 15 L 11 15 Z M 11 7.335938 " clip-rule="nonzero"/></clipPath><clipPath id="a6564a3b9b"><path d="M 9 15 L 21 15 L 21 21.125 L 9 21.125 Z M 9 15 " clip-rule="nonzero"/></clipPath></defs><g clip-path="url(#c2e843e57a)"><path fill="#ffffff" d="M 0.484375 0 L 29.515625 0 L 29.515625 29.03125 L 0.484375 29.03125 Z M 0.484375 0 " fill-opacity="1" fill-rule="nonzero"/><path fill="#03bff3" d="M 0.484375 0 L 29.515625 0 L 29.515625 29.03125 L 0.484375 29.03125 Z M 0.484375 0 " fill-opacity="1" fill-rule="nonzero"/></g><g clip-path="url(#6bda25ac5f)"><path fill="#ffffff" d="M 4.015625 19.164062 L 8.171875 19.164062 C 8.335938 19.164062 8.46875 19.03125 8.46875 18.867188 L 8.46875 18.453125 C 8.46875 17.21875 9.039062 16.117188 9.933594 15.398438 C 10.101562 15.265625 10.085938 14.992188 9.890625 14.902344 C 9.445312 14.695312 8.953125 14.578125 8.433594 14.578125 L 6.847656 14.578125 C 4.945312 14.578125 3.40625 16.117188 3.40625 18.019531 L 3.40625 18.554688 C 3.40625 18.890625 3.679688 19.164062 4.015625 19.164062 " fill-opacity="1" fill-rule="nonzero"/></g><path fill="#ffffff" d="M 4.929688 11.425781 C 4.929688 12.925781 6.144531 14.140625 7.640625 14.140625 C 9.140625 14.140625 10.351562 12.925781 10.351562 11.425781 C 10.351562 9.929688 9.140625 8.714844 7.640625 8.714844 C 6.144531 8.714844 4.929688 9.929688 4.929688 11.425781 " fill-opacity="1" fill-rule="nonzero"/><g clip-path="url(#654e011a32)"><path fill="#ffffff" d="M 23.152344 14.578125 L 21.5625 14.578125 C 21.019531 14.578125 20.507812 14.703125 20.050781 14.929688 C 19.855469 15.023438 19.820312 15.289062 19.992188 15.425781 C 20.867188 16.144531 21.425781 17.234375 21.425781 18.453125 L 21.425781 18.867188 C 21.425781 19.03125 21.558594 19.164062 21.722656 19.164062 L 25.984375 19.164062 C 26.320312 19.164062 26.597656 18.890625 26.597656 18.554688 L 26.597656 18.019531 C 26.597656 16.117188 25.054688 14.578125 23.152344 14.578125 " fill-opacity="1" fill-rule="nonzero"/></g><path fill="#ffffff" d="M 22.359375 8.714844 C 20.859375 8.714844 19.644531 9.929688 19.644531 11.425781 C 19.644531 12.925781 20.859375 14.140625 22.359375 14.140625 C 23.855469 14.140625 25.070312 12.925781 25.070312 11.425781 C 25.070312 9.929688 23.855469 8.714844 22.359375 8.714844 " fill-opacity="1" fill-rule="nonzero"/><g clip-path="url(#f03bf1fc57)"><path fill="#ffffff" d="M 14.945312 14.460938 C 16.914062 14.460938 18.507812 12.867188 18.507812 10.898438 C 18.507812 8.929688 16.914062 7.335938 14.945312 7.335938 C 12.980469 7.335938 11.386719 8.929688 11.386719 10.898438 C 11.386719 12.867188 12.980469 14.460938 14.945312 14.460938 " fill-opacity="1" fill-rule="nonzero"/></g><g clip-path="url(#a6564a3b9b)"><path fill="#ffffff" d="M 9.382812 18.855469 L 9.382812 21.027344 C 9.382812 21.046875 9.394531 21.058594 9.414062 21.058594 L 20.480469 21.058594 C 20.496094 21.058594 20.511719 21.046875 20.511719 21.027344 L 20.511719 18.855469 C 20.511719 16.746094 18.800781 15.035156 16.691406 15.035156 L 13.203125 15.035156 C 11.09375 15.035156 9.382812 16.746094 9.382812 18.855469 " fill-opacity="1" fill-rule="nonzero"/></g></svg>