<svg xmlns="http://www.w3.org/2000/svg" xmlns:xlink="http://www.w3.org/1999/xlink" width="40" zoomAndPan="magnify" viewBox="0 0 30 30.000001" height="40" preserveAspectRatio="xMidYMid meet" version="1.0"><defs><clipPath id="edcc50a8e3"><path d="M 0.484375 0 L 29.515625 0 L 29.515625 29.03125 L 0.484375 29.03125 Z M 0.484375 0 " clip-rule="nonzero"/></clipPath><clipPath id="d820ba4d4d"><path d="M 4.148438 2.902344 L 25.195312 2.902344 L 25.195312 26.128906 L 4.148438 26.128906 Z M 4.148438 2.902344 " clip-rule="nonzero"/></clipPath></defs><g clip-path="url(#edcc50a8e3)"><path fill="#ffffff" d="M 0.484375 0 L 29.515625 0 L 29.515625 29.03125 L 0.484375 29.03125 Z M 0.484375 0 " fill-opacity="1" fill-rule="nonzero"/><path fill="#03bff3" d="M 0.484375 0 L 29.515625 0 L 29.515625 29.03125 L 0.484375 29.03125 Z M 0.484375 0 " fill-opacity="1" fill-rule="nonzero"/></g><g clip-path="url(#d820ba4d4d)"><path fill="#ffffff" d="M 21.984375 24.457031 L 21.160156 24.25 L 21.160156 5.644531 C 21.160156 5.429688 20.984375 5.257812 20.773438 5.257812 L 8.492188 5.257812 L 8.746094 3.746094 L 24.203125 5.21875 Z M 20.386719 25.324219 L 4.953125 25.324219 L 4.953125 6.027344 L 20.386719 6.027344 Z M 8.460938 2.941406 C 8.253906 2.917969 8.078125 3.066406 8.042969 3.265625 L 7.710938 5.257812 L 4.566406 5.257812 C 4.351562 5.257812 4.179688 5.429688 4.179688 5.644531 L 4.179688 25.710938 C 4.179688 25.921875 4.351562 26.09375 4.566406 26.09375 L 20.773438 26.09375 C 20.984375 26.09375 21.160156 25.921875 21.160156 25.710938 L 21.160156 25.046875 L 22.222656 25.3125 C 22.253906 25.320312 22.285156 25.324219 22.316406 25.324219 C 22.394531 25.324219 22.472656 25.300781 22.535156 25.253906 C 22.628906 25.191406 22.6875 25.089844 22.699219 24.980469 L 25.015625 4.914062 C 25.027344 4.8125 24.996094 4.710938 24.933594 4.628906 C 24.867188 4.546875 24.773438 4.496094 24.667969 4.488281 L 8.460938 2.941406 " fill-opacity="1" fill-rule="nonzero"/></g><path fill="#ffffff" d="M 6.496094 9.117188 L 5.722656 9.117188 L 5.722656 15.289062 L 19.617188 15.289062 L 19.617188 14.519531 L 6.496094 14.519531 L 6.496094 9.117188 " fill-opacity="1" fill-rule="nonzero"/><path fill="#ffffff" d="M 15.011719 11.371094 L 12.621094 9.777344 L 10.355469 12.042969 L 9.195312 10.886719 L 6.992188 13.089844 L 7.539062 13.632812 L 9.195312 11.976562 L 10.355469 13.132812 L 12.71875 10.769531 L 14.957031 12.261719 L 19.789062 9.847656 L 19.441406 9.15625 L 15.011719 11.371094 " fill-opacity="1" fill-rule="nonzero"/><path fill="#ffffff" d="M 6.496094 8.34375 C 6.921875 8.34375 7.265625 7.996094 7.265625 7.574219 C 7.265625 7.148438 6.921875 6.800781 6.496094 6.800781 C 6.070312 6.800781 5.722656 7.148438 5.722656 7.574219 C 5.722656 7.996094 6.070312 8.34375 6.496094 8.34375 " fill-opacity="1" fill-rule="nonzero"/><path fill="#ffffff" d="M 18.84375 8.34375 C 19.269531 8.34375 19.617188 7.996094 19.617188 7.574219 C 19.617188 7.148438 19.269531 6.800781 18.84375 6.800781 C 18.417969 6.800781 18.070312 7.148438 18.070312 7.574219 C 18.070312 7.996094 18.417969 8.34375 18.84375 8.34375 " fill-opacity="1" fill-rule="nonzero"/><path fill="#ffffff" d="M 6.496094 23.007812 C 6.070312 23.007812 5.722656 23.355469 5.722656 23.78125 C 5.722656 24.203125 6.070312 24.550781 6.496094 24.550781 C 6.921875 24.550781 7.265625 24.203125 7.265625 23.78125 C 7.265625 23.355469 6.921875 23.007812 6.496094 23.007812 " fill-opacity="1" fill-rule="nonzero"/><path fill="#ffffff" d="M 18.84375 23.007812 C 18.417969 23.007812 18.070312 23.355469 18.070312 23.78125 C 18.070312 24.203125 18.417969 24.550781 18.84375 24.550781 C 19.269531 24.550781 19.617188 24.203125 19.617188 23.78125 C 19.617188 23.355469 19.269531 23.007812 18.84375 23.007812 " fill-opacity="1" fill-rule="nonzero"/><path fill="#ffffff" d="M 5.722656 16.832031 L 10.355469 16.832031 L 10.355469 16.0625 L 5.722656 16.0625 L 5.722656 16.832031 " fill-opacity="1" fill-rule="nonzero"/><path fill="#ffffff" d="M 12.667969 24.550781 L 17.300781 24.550781 L 17.300781 23.78125 L 12.667969 23.78125 L 12.667969 24.550781 " fill-opacity="1" fill-rule="nonzero"/><path fill="#ffffff" d="M 5.722656 18.378906 L 10.355469 18.378906 L 10.355469 17.605469 L 5.722656 17.605469 L 5.722656 18.378906 " fill-opacity="1" fill-rule="nonzero"/><path fill="#ffffff" d="M 5.722656 19.921875 L 10.355469 19.921875 L 10.355469 19.148438 L 5.722656 19.148438 L 5.722656 19.921875 " fill-opacity="1" fill-rule="nonzero"/><path fill="#ffffff" d="M 6.496094 20.691406 L 5.722656 20.691406 L 5.722656 21.464844 L 6.496094 21.464844 L 6.496094 20.691406 " fill-opacity="1" fill-rule="nonzero"/><path fill="#ffffff" d="M 7.265625 21.464844 L 8.039062 21.464844 L 8.039062 20.691406 L 7.265625 20.691406 L 7.265625 21.464844 " fill-opacity="1" fill-rule="nonzero"/><path fill="#ffffff" d="M 9.582031 20.691406 L 8.808594 20.691406 L 8.808594 21.464844 L 9.582031 21.464844 L 9.582031 20.691406 " fill-opacity="1" fill-rule="nonzero"/><path fill="#ffffff" d="M 11.898438 19.535156 C 11.898438 18.175781 12.90625 17.050781 14.214844 16.859375 L 14.214844 19.921875 L 17.273438 19.921875 C 17.085938 21.226562 15.957031 22.234375 14.597656 22.234375 C 13.109375 22.234375 11.898438 21.023438 11.898438 19.535156 Z M 18.070312 19.535156 L 18.070312 19.148438 L 14.984375 19.148438 L 14.984375 16.0625 L 14.597656 16.0625 C 12.683594 16.0625 11.125 17.617188 11.125 19.535156 C 11.125 21.449219 12.683594 23.007812 14.597656 23.007812 C 16.515625 23.007812 18.070312 21.449219 18.070312 19.535156 " fill-opacity="1" fill-rule="nonzero"/><path fill="#ffffff" d="M 15.398438 18.234375 L 16.113281 18.519531 L 16.789062 16.832031 L 19.617188 16.832031 L 19.617188 16.0625 L 16.265625 16.0625 L 15.398438 18.234375 " fill-opacity="1" fill-rule="nonzero"/><path fill="#ffffff" d="M 11.125 24.550781 L 11.898438 24.550781 L 11.898438 23.78125 L 11.125 23.78125 L 11.125 24.550781 " fill-opacity="1" fill-rule="nonzero"/><path fill="#ffffff" d="M 9.582031 24.550781 L 10.355469 24.550781 L 10.355469 23.78125 L 9.582031 23.78125 L 9.582031 24.550781 " fill-opacity="1" fill-rule="nonzero"/></svg>