<svg xmlns="http://www.w3.org/2000/svg" xmlns:xlink="http://www.w3.org/1999/xlink" width="40" zoomAndPan="magnify" viewBox="0 0 30 30.000001" height="40" preserveAspectRatio="xMidYMid meet" version="1.0"><defs><clipPath id="31aa017d42"><path d="M 0.484375 0 L 29.515625 0 L 29.515625 29.03125 L 0.484375 29.03125 Z M 0.484375 0 " clip-rule="nonzero"/></clipPath><clipPath id="4345775ea2"><path d="M 3.386719 7.605469 L 26.613281 7.605469 L 26.613281 24.300781 L 3.386719 24.300781 Z M 3.386719 7.605469 " clip-rule="nonzero"/></clipPath></defs><g clip-path="url(#31aa017d42)"><path fill="#ffffff" d="M 0.484375 0 L 29.515625 0 L 29.515625 29.03125 L 0.484375 29.03125 Z M 0.484375 0 " fill-opacity="1" fill-rule="nonzero"/><path fill="#03bff3" d="M 0.484375 0 L 29.515625 0 L 29.515625 29.03125 L 0.484375 29.03125 Z M 0.484375 0 " fill-opacity="1" fill-rule="nonzero"/></g><path fill="#ffffff" d="M 7.878906 16.175781 L 14.195312 16.175781 L 14.195312 17.921875 L 7.878906 17.921875 Z M 7.648438 18.382812 L 14.425781 18.382812 C 14.554688 18.382812 14.660156 18.277344 14.660156 18.152344 L 14.660156 15.945312 C 14.660156 15.820312 14.554688 15.714844 14.425781 15.714844 L 7.648438 15.714844 C 7.519531 15.714844 7.414062 15.820312 7.414062 15.945312 L 7.414062 18.152344 C 7.414062 18.277344 7.519531 18.382812 7.648438 18.382812 " fill-opacity="1" fill-rule="nonzero"/><g clip-path="url(#4345775ea2)"><path fill="#ffffff" d="M 15.511719 18.984375 L 6.683594 18.984375 L 6.683594 15.113281 L 15.511719 15.113281 Z M 17.035156 18.984375 L 16.515625 18.984375 L 16.515625 15.113281 L 17.035156 15.113281 Z M 19.546875 18.082031 C 19.433594 18.859375 19.117188 18.984375 18.804688 18.984375 L 18.039062 18.984375 L 18.039062 15.113281 L 18.601562 15.113281 Z M 19.824219 9.285156 C 19.828125 9.300781 19.828125 9.320312 19.832031 9.339844 C 19.855469 9.503906 19.894531 9.734375 19.953125 10.003906 C 20.007812 10.277344 20.082031 10.59375 20.171875 10.929688 C 20.214844 11.097656 20.261719 11.269531 20.316406 11.445312 C 20.367188 11.621094 20.421875 11.796875 20.476562 11.972656 C 20.53125 12.148438 20.589844 12.324219 20.648438 12.496094 C 20.707031 12.667969 20.769531 12.835938 20.828125 13 C 20.953125 13.324219 21.074219 13.625 21.183594 13.878906 C 21.296875 14.136719 21.398438 14.34375 21.472656 14.492188 C 21.507812 14.566406 21.539062 14.621094 21.558594 14.660156 C 21.582031 14.699219 21.589844 14.71875 21.589844 14.71875 C 21.589844 14.71875 21.589844 14.695312 21.585938 14.652344 C 21.578125 14.609375 21.570312 14.542969 21.558594 14.464844 C 21.535156 14.300781 21.496094 14.070312 21.4375 13.800781 C 21.382812 13.527344 21.308594 13.210938 21.21875 12.875 C 21.175781 12.707031 21.128906 12.535156 21.078125 12.359375 C 21.027344 12.183594 20.972656 12.007812 20.917969 11.832031 C 20.859375 11.65625 20.800781 11.480469 20.742188 11.308594 C 20.683594 11.136719 20.621094 10.96875 20.5625 10.804688 C 20.441406 10.480469 20.320312 10.179688 20.207031 9.925781 C 20.097656 9.667969 19.996094 9.457031 19.921875 9.3125 C 19.910156 9.292969 19.902344 9.277344 19.894531 9.257812 C 20.304688 9.113281 20.703125 8.933594 21.085938 8.71875 L 25.078125 21.285156 C 25.183594 21.617188 25.15625 21.96875 24.996094 22.277344 C 24.835938 22.585938 24.566406 22.8125 24.234375 22.917969 L 23.6875 23.09375 C 23.558594 23.132812 23.425781 23.15625 23.292969 23.15625 C 22.726562 23.15625 22.226562 22.789062 22.054688 22.246094 L 18.054688 9.660156 C 18.601562 9.609375 19.144531 9.503906 19.667969 9.335938 C 19.71875 9.320312 19.773438 9.300781 19.824219 9.285156 Z M 17.304688 9.5 C 17.289062 9.449219 17.316406 9.394531 17.371094 9.378906 C 17.421875 9.359375 17.480469 9.390625 17.496094 9.441406 L 17.5 9.449219 L 19.171875 14.703125 L 19.265625 14.996094 L 19.820312 16.738281 L 20.050781 17.464844 L 21.613281 22.386719 C 21.847656 23.121094 22.523438 23.617188 23.292969 23.617188 C 23.472656 23.617188 23.652344 23.589844 23.828125 23.535156 L 24.375 23.359375 C 24.824219 23.214844 25.191406 22.90625 25.40625 22.488281 C 25.621094 22.070312 25.664062 21.59375 25.519531 21.144531 L 21.449219 8.339844 L 21.4375 8.304688 L 21.40625 8.207031 L 21.40625 8.199219 C 21.390625 8.144531 21.417969 8.089844 21.472656 8.074219 C 21.523438 8.054688 21.582031 8.085938 21.597656 8.136719 L 21.601562 8.144531 L 25.769531 21.253906 C 26.082031 22.230469 25.539062 23.28125 24.558594 23.589844 L 23.8125 23.828125 C 23.625 23.886719 23.4375 23.917969 23.246094 23.917969 C 22.433594 23.917969 21.71875 23.394531 21.472656 22.617188 L 20.019531 18.050781 L 19.820312 17.417969 L 19.585938 16.6875 L 19.105469 15.171875 L 19.019531 14.902344 L 18.941406 14.660156 L 17.304688 9.511719 Z M 3.863281 17.390625 L 3.863281 16.707031 C 3.863281 15.304688 4.261719 15.113281 4.648438 15.113281 L 5.679688 15.113281 L 5.679688 18.984375 L 4.648438 18.984375 C 4.261719 18.984375 3.863281 18.792969 3.863281 17.390625 Z M 3.863281 21.039062 C 3.863281 19.632812 4.261719 19.445312 4.648438 19.445312 L 18.804688 19.445312 C 19.191406 19.445312 19.585938 19.632812 19.585938 21.039062 L 19.585938 21.722656 C 19.585938 23.125 19.191406 23.3125 18.804688 23.3125 L 4.648438 23.3125 C 4.261719 23.3125 3.863281 23.125 3.863281 21.722656 Z M 4.648438 23.777344 L 18.804688 23.777344 C 20.050781 23.777344 20.050781 22.285156 20.050781 21.722656 L 20.050781 21.039062 C 20.050781 20.613281 20.050781 19.65625 19.511719 19.214844 C 19.628906 19.117188 19.722656 18.996094 19.792969 18.859375 L 21.03125 22.757812 C 21.339844 23.726562 22.230469 24.378906 23.246094 24.378906 C 23.484375 24.378906 23.722656 24.34375 23.949219 24.269531 L 24.699219 24.03125 C 25.921875 23.644531 26.597656 22.332031 26.210938 21.113281 L 22.085938 8.136719 L 22.035156 7.988281 C 22.035156 7.976562 22.03125 7.964844 22.023438 7.957031 C 21.9375 7.746094 21.730469 7.605469 21.503906 7.605469 C 21.445312 7.605469 21.386719 7.613281 21.332031 7.632812 C 21.058594 7.71875 20.898438 7.988281 20.949219 8.265625 C 20.496094 8.527344 20.019531 8.738281 19.527344 8.894531 C 19 9.0625 18.453125 9.167969 17.898438 9.210938 C 17.800781 9.027344 17.609375 8.910156 17.402344 8.910156 C 17.34375 8.910156 17.285156 8.917969 17.230469 8.9375 C 16.949219 9.027344 16.785156 9.3125 16.851562 9.601562 C 16.851562 9.609375 16.855469 9.621094 16.859375 9.632812 L 18.453125 14.652344 L 4.648438 14.652344 C 3.402344 14.652344 3.402344 16.144531 3.402344 16.707031 L 3.402344 17.390625 C 3.402344 17.816406 3.402344 18.773438 3.941406 19.214844 C 3.402344 19.65625 3.402344 20.613281 3.402344 21.039062 L 3.402344 21.722656 C 3.402344 22.285156 3.402344 23.777344 4.648438 23.777344 " fill-opacity="1" fill-rule="nonzero"/></g><path fill="#ffffff" d="M 15.742188 20.050781 L 17.808594 20.050781 L 17.808594 22.707031 L 15.742188 22.707031 Z M 15.511719 23.167969 L 18.039062 23.167969 C 18.167969 23.167969 18.269531 23.066406 18.269531 22.9375 L 18.269531 19.820312 C 18.269531 19.691406 18.167969 19.589844 18.039062 19.589844 L 15.511719 19.589844 C 15.382812 19.589844 15.28125 19.691406 15.28125 19.820312 L 15.28125 22.9375 C 15.28125 23.066406 15.382812 23.167969 15.511719 23.167969 " fill-opacity="1" fill-rule="nonzero"/><path fill="#ffffff" d="M 5.652344 21.230469 L 8.378906 21.230469 L 8.378906 21.527344 L 5.652344 21.527344 Z M 5.421875 21.988281 L 8.609375 21.988281 C 8.738281 21.988281 8.839844 21.886719 8.839844 21.757812 L 8.839844 21 C 8.839844 20.871094 8.738281 20.769531 8.609375 20.769531 L 5.421875 20.769531 C 5.292969 20.769531 5.1875 20.871094 5.1875 21 L 5.1875 21.757812 C 5.1875 21.886719 5.292969 21.988281 5.421875 21.988281 " fill-opacity="1" fill-rule="nonzero"/><path fill="#ffffff" d="M 21.042969 16.097656 C 21.066406 16.261719 21.105469 16.492188 21.160156 16.765625 C 21.21875 17.035156 21.292969 17.351562 21.382812 17.6875 C 21.425781 17.855469 21.472656 18.027344 21.523438 18.203125 C 21.574219 18.378906 21.628906 18.554688 21.683594 18.730469 C 21.742188 18.90625 21.800781 19.082031 21.859375 19.253906 C 21.917969 19.425781 21.980469 19.59375 22.039062 19.757812 C 22.160156 20.082031 22.28125 20.382812 22.394531 20.636719 C 22.503906 20.894531 22.605469 21.105469 22.679688 21.25 C 22.714844 21.324219 22.75 21.378906 22.769531 21.417969 C 22.789062 21.457031 22.800781 21.476562 22.800781 21.476562 C 22.800781 21.476562 22.796875 21.453125 22.792969 21.410156 C 22.789062 21.367188 22.78125 21.300781 22.769531 21.222656 C 22.742188 21.058594 22.703125 20.828125 22.648438 20.558594 C 22.589844 20.285156 22.519531 19.96875 22.429688 19.632812 C 22.382812 19.464844 22.335938 19.292969 22.285156 19.117188 C 22.234375 18.941406 22.179688 18.765625 22.125 18.589844 C 22.066406 18.414062 22.011719 18.238281 21.953125 18.066406 C 21.894531 17.894531 21.832031 17.726562 21.773438 17.5625 C 21.652344 17.238281 21.527344 16.9375 21.417969 16.683594 C 21.304688 16.425781 21.203125 16.214844 21.128906 16.070312 C 21.09375 15.996094 21.0625 15.941406 21.042969 15.902344 C 21.019531 15.863281 21.007812 15.84375 21.007812 15.84375 C 21.007812 15.84375 21.011719 15.867188 21.015625 15.910156 C 21.023438 15.953125 21.03125 16.019531 21.042969 16.097656 " fill-opacity="1" fill-rule="nonzero"/><path fill="#ffffff" d="M 23.667969 18.453125 C 23.675781 18.566406 23.691406 18.722656 23.722656 18.910156 C 23.75 19.097656 23.792969 19.3125 23.847656 19.542969 C 23.875 19.65625 23.90625 19.773438 23.941406 19.890625 C 23.972656 20.011719 24.007812 20.128906 24.046875 20.25 C 24.085938 20.367188 24.125 20.488281 24.164062 20.601562 C 24.207031 20.71875 24.25 20.832031 24.292969 20.941406 C 24.378906 21.15625 24.472656 21.359375 24.554688 21.527344 C 24.640625 21.699219 24.71875 21.835938 24.777344 21.933594 C 24.804688 21.980469 24.828125 22.019531 24.84375 22.042969 C 24.863281 22.070312 24.871094 22.082031 24.871094 22.082031 C 24.871094 22.082031 24.871094 22.066406 24.871094 22.035156 C 24.867188 22.007812 24.867188 21.960938 24.863281 21.90625 C 24.855469 21.792969 24.839844 21.636719 24.808594 21.449219 C 24.78125 21.261719 24.738281 21.042969 24.683594 20.816406 C 24.65625 20.703125 24.625 20.585938 24.59375 20.464844 C 24.558594 20.347656 24.523438 20.230469 24.488281 20.109375 C 24.449219 19.992188 24.410156 19.871094 24.367188 19.757812 C 24.328125 19.640625 24.28125 19.527344 24.238281 19.417969 C 24.152344 19.199219 24.0625 19 23.976562 18.832031 C 23.894531 18.660156 23.816406 18.523438 23.757812 18.425781 C 23.730469 18.378906 23.703125 18.339844 23.6875 18.316406 C 23.671875 18.289062 23.660156 18.277344 23.660156 18.277344 C 23.660156 18.277344 23.660156 18.292969 23.664062 18.324219 C 23.664062 18.351562 23.664062 18.398438 23.667969 18.453125 " fill-opacity="1" fill-rule="nonzero"/></svg>