<svg xmlns="http://www.w3.org/2000/svg" xmlns:xlink="http://www.w3.org/1999/xlink" width="40" zoomAndPan="magnify" viewBox="0 0 30 30.000001" height="40" preserveAspectRatio="xMidYMid meet" version="1.0"><defs><clipPath id="6083209001"><path d="M 0.484375 0 L 29.515625 0 L 29.515625 29.03125 L 0.484375 29.03125 Z M 0.484375 0 " clip-rule="nonzero"/></clipPath><clipPath id="f9240f54ca"><path d="M 4.628906 16 L 8 16 L 8 24 L 4.628906 24 Z M 4.628906 16 " clip-rule="nonzero"/></clipPath><clipPath id="3f6c1fd25d"><path d="M 7 16 L 25.675781 16 L 25.675781 25 L 7 25 Z M 7 16 " clip-rule="nonzero"/></clipPath><clipPath id="e23c2e5218"><path d="M 12 3.769531 L 20 3.769531 L 20 14 L 12 14 Z M 12 3.769531 " clip-rule="nonzero"/></clipPath></defs><g clip-path="url(#6083209001)"><path fill="#ffffff" d="M 0.484375 0 L 29.515625 0 L 29.515625 29.03125 L 0.484375 29.03125 Z M 0.484375 0 " fill-opacity="1" fill-rule="nonzero"/><path fill="#03bff3" d="M 0.484375 0 L 29.515625 0 L 29.515625 29.03125 L 0.484375 29.03125 Z M 0.484375 0 " fill-opacity="1" fill-rule="nonzero"/></g><path fill="#ffffff" d="M 19.859375 18.03125 C 19.917969 18.234375 19.9375 18.441406 19.910156 18.65625 L 22.640625 16.851562 C 22.011719 16.597656 21.394531 16.625 20.796875 16.941406 L 19.621094 17.558594 C 19.730469 17.703125 19.808594 17.859375 19.859375 18.03125 Z M 19.859375 18.03125 " fill-opacity="1" fill-rule="nonzero"/><g clip-path="url(#f9240f54ca)"><path fill="#ffffff" d="M 6.703125 16.183594 L 5.019531 16.183594 C 4.90625 16.183594 4.808594 16.222656 4.730469 16.304688 C 4.652344 16.382812 4.609375 16.480469 4.613281 16.59375 L 4.613281 22.953125 C 4.613281 23.0625 4.652344 23.160156 4.730469 23.238281 C 4.8125 23.320312 4.90625 23.359375 5.019531 23.359375 L 6.703125 23.359375 C 6.816406 23.359375 6.910156 23.320312 6.992188 23.238281 C 7.070312 23.160156 7.109375 23.0625 7.109375 22.953125 L 7.109375 16.59375 C 7.109375 16.480469 7.070312 16.382812 6.992188 16.304688 C 6.910156 16.222656 6.816406 16.183594 6.703125 16.183594 Z M 6.703125 16.183594 " fill-opacity="1" fill-rule="nonzero"/></g><g clip-path="url(#3f6c1fd25d)"><path fill="#ffffff" d="M 25.285156 17.496094 C 25.246094 17.351562 25.175781 17.226562 25.074219 17.117188 C 24.96875 17.003906 24.847656 16.925781 24.707031 16.878906 C 24.566406 16.828125 24.417969 16.816406 24.269531 16.839844 C 24.125 16.863281 23.988281 16.921875 23.871094 17.011719 L 23.675781 17.136719 C 23.648438 17.167969 23.617188 17.1875 23.582031 17.203125 L 17.78125 21.039062 C 17.5 21.222656 17.191406 21.320312 16.855469 21.335938 C 16.519531 21.347656 16.207031 21.273438 15.914062 21.113281 L 14.351562 20.25 L 11.75 20.335938 C 11.636719 20.339844 11.539062 20.300781 11.457031 20.226562 C 11.375 20.148438 11.332031 20.054688 11.328125 19.941406 C 11.328125 19.828125 11.363281 19.730469 11.441406 19.648438 C 11.519531 19.566406 11.613281 19.527344 11.726562 19.523438 L 14.445312 19.433594 L 18.253906 19.308594 C 18.449219 19.3125 18.625 19.25 18.78125 19.128906 C 18.9375 19.003906 19.035156 18.847656 19.074219 18.652344 C 19.113281 18.460938 19.089844 18.277344 18.996094 18.101562 C 18.902344 17.925781 18.765625 17.800781 18.582031 17.726562 L 10.289062 16.824219 C 9.464844 16.777344 8.675781 16.929688 7.925781 17.28125 L 7.925781 22.414062 C 9.453125 22.90625 14.246094 24.460938 15.128906 24.875 C 15.878906 25.238281 16.613281 24.535156 16.640625 24.503906 C 16.675781 24.464844 24.851562 18.546875 24.898438 18.507812 C 25.058594 18.394531 25.171875 18.246094 25.246094 18.0625 C 25.316406 17.878906 25.328125 17.6875 25.285156 17.496094 Z M 25.285156 17.496094 " fill-opacity="1" fill-rule="nonzero"/></g><g clip-path="url(#e23c2e5218)"><path fill="#ffffff" d="M 12.722656 13.351562 L 19.25 13.351562 C 19.449219 13.335938 19.617188 13.25 19.746094 13.097656 C 19.878906 12.949219 19.9375 12.773438 19.921875 12.574219 L 19.921875 6.925781 L 17.351562 6.925781 C 17.238281 6.925781 17.144531 6.886719 17.0625 6.804688 C 16.984375 6.726562 16.945312 6.632812 16.945312 6.519531 L 16.945312 3.78125 L 12.722656 3.78125 C 12.523438 3.800781 12.359375 3.882812 12.226562 4.035156 C 12.097656 4.1875 12.039062 4.363281 12.050781 4.5625 L 12.050781 12.574219 C 12.039062 12.773438 12.097656 12.949219 12.226562 13.097656 C 12.359375 13.25 12.523438 13.335938 12.722656 13.351562 Z M 13.324219 4.917969 L 15.757812 4.917969 C 15.867188 4.917969 15.964844 4.957031 16.042969 5.039062 C 16.121094 5.117188 16.160156 5.210938 16.160156 5.324219 C 16.160156 5.433594 16.121094 5.53125 16.042969 5.609375 C 15.964844 5.691406 15.867188 5.730469 15.757812 5.730469 L 13.324219 5.730469 C 13.210938 5.730469 13.117188 5.691406 13.039062 5.609375 C 12.960938 5.53125 12.921875 5.433594 12.921875 5.324219 C 12.921875 5.210938 12.960938 5.117188 13.039062 5.039062 C 13.117188 4.957031 13.210938 4.917969 13.324219 4.917969 Z M 13.324219 7.078125 L 15.757812 7.078125 C 15.867188 7.078125 15.964844 7.121094 16.042969 7.199219 C 16.121094 7.277344 16.160156 7.375 16.160156 7.484375 C 16.160156 7.597656 16.121094 7.691406 16.042969 7.769531 C 15.964844 7.851562 15.867188 7.890625 15.757812 7.890625 L 13.324219 7.890625 C 13.210938 7.890625 13.117188 7.851562 13.039062 7.769531 C 12.960938 7.691406 12.921875 7.597656 12.921875 7.484375 C 12.921875 7.375 12.960938 7.277344 13.039062 7.199219 C 13.117188 7.121094 13.210938 7.078125 13.324219 7.078125 Z M 13.324219 9.242188 L 18.652344 9.242188 C 18.761719 9.242188 18.859375 9.285156 18.9375 9.363281 C 19.015625 9.441406 19.054688 9.539062 19.054688 9.648438 C 19.054688 9.761719 19.015625 9.855469 18.9375 9.9375 C 18.859375 10.015625 18.761719 10.054688 18.652344 10.058594 L 13.324219 10.058594 C 13.210938 10.054688 13.117188 10.015625 13.039062 9.9375 C 12.960938 9.855469 12.921875 9.761719 12.921875 9.648438 C 12.921875 9.539062 12.960938 9.441406 13.039062 9.363281 C 13.117188 9.285156 13.210938 9.242188 13.324219 9.242188 Z M 13.324219 11.402344 L 18.652344 11.402344 C 18.761719 11.402344 18.859375 11.445312 18.9375 11.523438 C 19.015625 11.601562 19.054688 11.699219 19.054688 11.808594 C 19.054688 11.921875 19.015625 12.015625 18.9375 12.097656 C 18.859375 12.175781 18.761719 12.214844 18.652344 12.21875 L 13.324219 12.21875 C 13.210938 12.214844 13.117188 12.175781 13.039062 12.097656 C 12.960938 12.015625 12.921875 11.921875 12.921875 11.808594 C 12.921875 11.699219 12.960938 11.601562 13.039062 11.523438 C 13.117188 11.445312 13.210938 11.402344 13.324219 11.402344 Z M 13.324219 11.402344 " fill-opacity="1" fill-rule="nonzero"/></g><path fill="#ffffff" d="M 17.757812 4.394531 L 17.757812 6.109375 L 19.386719 6.109375 Z M 17.757812 4.394531 " fill-opacity="1" fill-rule="nonzero"/></svg>