<svg xmlns="http://www.w3.org/2000/svg" xmlns:xlink="http://www.w3.org/1999/xlink" width="40" zoomAndPan="magnify" viewBox="0 0 30 30.000001" height="40" preserveAspectRatio="xMidYMid meet" version="1.0"><defs><clipPath id="d6f2f2201d"><path d="M 0.484375 0 L 29.515625 0 L 29.515625 29.03125 L 0.484375 29.03125 Z M 0.484375 0 " clip-rule="nonzero"/></clipPath><clipPath id="97a5b2fead"><path d="M 3.386719 7 L 14 7 L 14 25.910156 L 3.386719 25.910156 Z M 3.386719 7 " clip-rule="nonzero"/></clipPath><clipPath id="e7aece1ddc"><path d="M 16 7 L 26.613281 7 L 26.613281 25.910156 L 16 25.910156 Z M 16 7 " clip-rule="nonzero"/></clipPath><clipPath id="756ccf89c7"><path d="M 8 2.683594 L 22 2.683594 L 22 18 L 8 18 Z M 8 2.683594 " clip-rule="nonzero"/></clipPath></defs><g clip-path="url(#d6f2f2201d)"><path fill="#ffffff" d="M 0.484375 0 L 29.515625 0 L 29.515625 29.03125 L 0.484375 29.03125 Z M 0.484375 0 " fill-opacity="1" fill-rule="nonzero"/><path fill="#03bff3" d="M 0.484375 0 L 29.515625 0 L 29.515625 29.03125 L 0.484375 29.03125 Z M 0.484375 0 " fill-opacity="1" fill-rule="nonzero"/></g><g clip-path="url(#97a5b2fead)"><path fill="#ffffff" d="M 7.292969 24.273438 L 7.292969 26.125 L 8.074219 26.125 L 8.074219 24.171875 C 8.074219 24.109375 8.058594 24.042969 8.027344 23.984375 L 4.511719 17.660156 C 4.289062 17.253906 4.167969 16.792969 4.167969 16.332031 L 4.167969 8.9375 C 4.167969 8.507812 4.519531 8.15625 4.949219 8.15625 C 5.378906 8.15625 5.730469 8.507812 5.730469 8.9375 L 5.730469 14.542969 C 5.246094 15.109375 5.246094 15.949219 5.757812 16.511719 L 8.957031 20.03125 L 9.535156 19.503906 L 6.335938 15.984375 C 6.082031 15.703125 6.089844 15.273438 6.359375 15.003906 C 6.5 14.867188 6.6875 14.796875 6.878906 14.796875 C 7.078125 14.804688 7.257812 14.886719 7.386719 15.03125 L 10.128906 18.078125 C 10.15625 18.105469 10.210938 18.144531 10.246094 18.167969 C 11.800781 19.054688 12.761719 20.714844 12.761719 22.503906 L 12.761719 26.125 L 13.546875 26.125 L 13.546875 22.21875 L 13.535156 22.21875 C 13.441406 20.285156 12.371094 18.507812 10.667969 17.507812 L 7.96875 14.511719 C 7.695312 14.203125 7.3125 14.027344 6.898438 14.015625 C 6.765625 14.011719 6.636719 14.03125 6.511719 14.0625 L 6.511719 8.9375 C 6.511719 8.074219 5.8125 7.375 4.949219 7.375 C 4.085938 7.375 3.386719 8.074219 3.386719 8.9375 L 3.386719 16.332031 C 3.386719 16.925781 3.539062 17.519531 3.828125 18.039062 L 7.292969 24.273438 " fill-opacity="1" fill-rule="nonzero"/></g><g clip-path="url(#e7aece1ddc)"><path fill="#ffffff" d="M 25.265625 7.375 C 24.402344 7.375 23.703125 8.074219 23.703125 8.9375 L 23.703125 14.0625 C 23.578125 14.03125 23.449219 14.011719 23.316406 14.015625 C 22.902344 14.027344 22.523438 14.203125 22.246094 14.511719 L 19.546875 17.507812 C 17.855469 18.488281 16.777344 20.273438 16.679688 22.21875 L 16.671875 22.21875 L 16.671875 26.125 L 17.453125 26.125 L 17.453125 22.503906 C 17.453125 20.714844 18.417969 19.054688 19.988281 18.15625 C 20.023438 18.132812 20.058594 18.109375 20.085938 18.078125 L 22.828125 15.03125 C 22.957031 14.886719 23.136719 14.804688 23.335938 14.796875 C 23.535156 14.796875 23.714844 14.867188 23.855469 15.003906 C 24.125 15.273438 24.136719 15.703125 23.878906 15.984375 L 20.679688 19.503906 L 21.257812 20.03125 L 24.457031 16.511719 C 24.96875 15.949219 24.96875 15.109375 24.484375 14.542969 L 24.484375 8.9375 C 24.484375 8.507812 24.835938 8.15625 25.265625 8.15625 C 25.695312 8.15625 26.046875 8.507812 26.046875 8.9375 L 26.046875 16.289062 C 26.046875 16.777344 25.914062 17.257812 25.664062 17.6875 L 22.1875 23.984375 C 22.15625 24.042969 22.140625 24.109375 22.140625 24.171875 L 22.140625 26.125 L 22.921875 26.125 L 22.921875 24.273438 L 26.34375 18.074219 C 26.660156 17.53125 26.828125 16.917969 26.828125 16.289062 L 26.828125 8.9375 C 26.828125 8.074219 26.128906 7.375 25.265625 7.375 " fill-opacity="1" fill-rule="nonzero"/></g><g clip-path="url(#756ccf89c7)"><path fill="#ffffff" d="M 20.96875 13.296875 L 15.5 16.464844 L 15.5 10.335938 L 20.96875 7.261719 Z M 15.109375 9.660156 L 12.605469 8.253906 L 18.058594 5.183594 L 20.5625 6.59375 Z M 14.71875 16.464844 L 9.246094 13.296875 L 9.246094 7.261719 L 14.71875 10.335938 Z M 15.109375 3.523438 L 17.261719 4.738281 L 11.808594 7.804688 L 9.652344 6.59375 Z M 21.75 13.523438 L 21.75 6.59375 C 21.75 6.558594 21.746094 6.523438 21.734375 6.488281 C 21.734375 6.480469 21.726562 6.46875 21.722656 6.457031 C 21.714844 6.4375 21.707031 6.414062 21.695312 6.398438 C 21.691406 6.386719 21.679688 6.378906 21.671875 6.367188 C 21.660156 6.351562 21.648438 6.332031 21.636719 6.316406 C 21.625 6.308594 21.613281 6.300781 21.605469 6.292969 C 21.589844 6.28125 21.574219 6.265625 21.554688 6.253906 C 21.554688 6.253906 21.554688 6.253906 21.550781 6.253906 L 15.296875 2.734375 C 15.179688 2.667969 15.035156 2.667969 14.917969 2.734375 L 8.664062 6.253906 C 8.664062 6.253906 8.660156 6.253906 8.660156 6.253906 C 8.640625 6.265625 8.625 6.28125 8.609375 6.292969 C 8.601562 6.300781 8.589844 6.308594 8.582031 6.316406 C 8.566406 6.332031 8.554688 6.351562 8.542969 6.367188 C 8.535156 6.378906 8.527344 6.386719 8.519531 6.398438 C 8.507812 6.414062 8.5 6.4375 8.492188 6.457031 C 8.488281 6.46875 8.484375 6.480469 8.480469 6.488281 C 8.46875 6.523438 8.464844 6.558594 8.464844 6.59375 L 8.464844 13.523438 C 8.464844 13.664062 8.539062 13.792969 8.660156 13.863281 L 14.914062 17.476562 C 14.914062 17.476562 14.914062 17.480469 14.914062 17.480469 C 14.933594 17.492188 14.960938 17.5 14.988281 17.511719 C 14.992188 17.511719 15 17.515625 15.007812 17.519531 C 15.039062 17.527344 15.074219 17.53125 15.109375 17.53125 C 15.140625 17.53125 15.175781 17.527344 15.207031 17.519531 C 15.214844 17.515625 15.222656 17.511719 15.226562 17.511719 C 15.253906 17.5 15.28125 17.492188 15.304688 17.480469 C 15.304688 17.480469 15.304688 17.476562 15.304688 17.476562 L 21.554688 13.863281 C 21.675781 13.792969 21.75 13.664062 21.75 13.523438 " fill-opacity="1" fill-rule="nonzero"/></g><path fill="#ffffff" d="M 20.1875 12.453125 L 19.40625 12.453125 L 19.40625 13.234375 L 20.1875 13.234375 L 20.1875 12.453125 " fill-opacity="1" fill-rule="nonzero"/><path fill="#ffffff" d="M 18.625 13.234375 L 17.84375 13.234375 L 17.84375 14.015625 L 18.625 14.015625 L 18.625 13.234375 " fill-opacity="1" fill-rule="nonzero"/><path fill="#ffffff" d="M 17.0625 14.015625 L 16.28125 14.015625 L 16.28125 14.796875 L 17.0625 14.796875 L 17.0625 14.015625 " fill-opacity="1" fill-rule="nonzero"/></svg>