<svg xmlns="http://www.w3.org/2000/svg" xmlns:xlink="http://www.w3.org/1999/xlink" width="40" zoomAndPan="magnify" viewBox="0 0 30 30.000001" height="40" preserveAspectRatio="xMidYMid meet" version="1.0"><defs><clipPath id="abfdc8ebea"><path d="M 0.484375 0 L 29.515625 0 L 29.515625 29.03125 L 0.484375 29.03125 Z M 0.484375 0 " clip-rule="nonzero"/></clipPath><clipPath id="f9ec95ab51"><path d="M 4.765625 4.785156 L 20 4.785156 L 20 25.105469 L 4.765625 25.105469 Z M 4.765625 4.785156 " clip-rule="nonzero"/></clipPath><clipPath id="0cf48d89a3"><path d="M 21 4.785156 L 25.089844 4.785156 L 25.089844 25.105469 L 21 25.105469 Z M 21 4.785156 " clip-rule="nonzero"/></clipPath></defs><g clip-path="url(#abfdc8ebea)"><path fill="#ffffff" d="M 0.484375 0 L 29.515625 0 L 29.515625 29.03125 L 0.484375 29.03125 Z M 0.484375 0 " fill-opacity="1" fill-rule="nonzero"/><path fill="#03bff3" d="M 0.484375 0 L 29.515625 0 L 29.515625 29.03125 L 0.484375 29.03125 Z M 0.484375 0 " fill-opacity="1" fill-rule="nonzero"/></g><g clip-path="url(#f9ec95ab51)"><path fill="#ffffff" d="M 19.734375 8.433594 L 19.734375 8.398438 C 19.699219 8.363281 19.699219 8.332031 19.667969 8.296875 L 16.257812 4.886719 C 16.222656 4.851562 16.1875 4.851562 16.15625 4.820312 L 16.121094 4.820312 C 16.085938 4.820312 16.050781 4.785156 16.019531 4.785156 L 5.105469 4.785156 C 4.902344 4.785156 4.765625 4.921875 4.765625 5.125 L 4.765625 24.902344 C 4.765625 25.105469 4.902344 25.242188 5.105469 25.242188 L 19.429688 25.242188 C 19.632812 25.242188 19.769531 25.105469 19.769531 24.902344 L 19.769531 8.535156 C 19.769531 8.5 19.769531 8.46875 19.734375 8.433594 Z M 18.609375 8.195312 L 16.359375 8.195312 L 16.359375 5.945312 Z M 12.609375 24.5625 L 12.609375 23.199219 L 13.289062 23.199219 C 13.496094 23.199219 13.632812 23.0625 13.632812 22.855469 L 13.632812 21.492188 L 13.972656 21.492188 C 14.175781 21.492188 14.3125 21.355469 14.3125 21.152344 L 14.3125 18.628906 C 15.984375 17.84375 17.042969 16.171875 17.042969 14.332031 C 17.042969 11.707031 14.894531 9.558594 12.269531 9.558594 C 9.640625 9.558594 7.492188 11.707031 7.492188 14.332031 C 7.492188 16.171875 8.550781 17.84375 10.222656 18.628906 L 10.222656 21.152344 C 10.222656 21.355469 10.359375 21.492188 10.5625 21.492188 L 10.902344 21.492188 L 10.902344 22.855469 C 10.902344 23.0625 11.039062 23.199219 11.246094 23.199219 L 11.925781 23.199219 L 11.925781 24.5625 L 5.449219 24.5625 L 5.449219 5.464844 L 15.675781 5.464844 L 15.675781 8.535156 C 15.675781 8.738281 15.8125 8.875 16.019531 8.875 L 19.085938 8.875 L 19.085938 24.5625 Z M 10.902344 19.445312 C 10.902344 18.933594 10.902344 18.421875 10.902344 18.421875 C 10.902344 18.289062 10.835938 18.183594 10.699219 18.117188 C 9.164062 17.46875 8.175781 15.96875 8.175781 14.332031 C 8.175781 12.082031 10.015625 10.238281 12.269531 10.238281 C 14.519531 10.238281 16.359375 12.082031 16.359375 14.332031 C 16.359375 15.96875 15.371094 17.46875 13.835938 18.117188 C 13.699219 18.152344 13.632812 18.289062 13.632812 18.421875 L 13.632812 20.808594 L 10.902344 20.808594 C 10.902344 20.808594 10.902344 20.402344 10.902344 20.128906 L 12.609375 20.128906 L 12.609375 19.445312 Z M 11.585938 21.492188 L 12.949219 21.492188 L 12.949219 22.515625 L 11.585938 22.515625 Z M 11.585938 21.492188 " fill-opacity="1" fill-rule="nonzero"/></g><path fill="#ffffff" d="M 12.609375 13.785156 L 13.527344 12.867188 L 13.050781 12.386719 L 12.269531 13.171875 L 11.484375 12.386719 L 11.007812 12.867188 L 11.925781 13.785156 L 11.925781 17.402344 L 12.609375 17.402344 C 12.609375 17.402344 12.609375 14.058594 12.609375 13.785156 Z M 12.609375 13.785156 " fill-opacity="1" fill-rule="nonzero"/><g clip-path="url(#0cf48d89a3)"><path fill="#ffffff" d="M 24.882812 4.785156 L 22.839844 4.785156 C 22.632812 4.785156 22.496094 4.921875 22.496094 5.125 L 22.496094 6.488281 L 21.472656 6.488281 C 21.269531 6.488281 21.132812 6.625 21.132812 6.832031 L 21.132812 17.058594 L 21.816406 17.058594 L 21.816406 7.171875 L 22.496094 7.171875 L 22.496094 21.832031 C 22.496094 21.902344 22.53125 22.003906 22.566406 22.039062 L 23.554688 25.003906 C 23.589844 25.140625 23.722656 25.242188 23.859375 25.242188 C 23.996094 25.242188 24.132812 25.140625 24.167969 25.003906 L 25.15625 22.039062 C 25.191406 21.96875 25.226562 21.902344 25.226562 21.832031 L 25.226562 5.125 C 25.226562 4.921875 25.089844 4.785156 24.882812 4.785156 Z M 23.179688 9.21875 L 24.542969 9.21875 L 24.542969 21.492188 L 23.179688 21.492188 Z M 23.179688 5.464844 L 24.542969 5.464844 L 24.542969 8.535156 L 23.179688 8.535156 Z M 23.859375 23.8125 L 23.316406 22.175781 L 24.40625 22.175781 Z M 23.859375 23.8125 " fill-opacity="1" fill-rule="nonzero"/></g><path fill="#ffffff" d="M 6.8125 6.488281 L 8.515625 6.488281 L 8.515625 7.171875 L 6.8125 7.171875 Z M 6.8125 6.488281 " fill-opacity="1" fill-rule="nonzero"/><path fill="#ffffff" d="M 6.8125 7.851562 L 11.246094 7.851562 L 11.246094 8.535156 L 6.8125 8.535156 Z M 6.8125 7.851562 " fill-opacity="1" fill-rule="nonzero"/></svg>