<svg xmlns="http://www.w3.org/2000/svg" xmlns:xlink="http://www.w3.org/1999/xlink" width="40" zoomAndPan="magnify" viewBox="0 0 30 30.000001" height="40" preserveAspectRatio="xMidYMid meet" version="1.0"><defs><clipPath id="8a5d35db46"><path d="M 2.515625 18 L 11 18 L 11 26 L 2.515625 26 Z M 2.515625 18 " clip-rule="nonzero"/></clipPath></defs><g clip-path="url(#8a5d35db46)"><path fill="#000000" d="M 8.261719 18.054688 L 3.136719 23.175781 C 2.496094 23.820312 2.496094 24.863281 3.136719 25.507812 C 3.78125 26.148438 4.824219 26.148438 5.46875 25.507812 L 10.59375 20.382812 Z M 8.261719 18.054688 " fill-opacity="1" fill-rule="nonzero"/></g><path fill="#000000" d="M 22.679688 5.964844 C 19.617188 2.90625 14.636719 2.90625 11.578125 5.964844 C 8.792969 8.75 8.550781 13.121094 10.835938 16.195312 L 9.296875 17.734375 L 10.914062 19.347656 L 12.453125 17.808594 C 15.523438 20.09375 19.894531 19.855469 22.679688 17.066406 C 25.742188 14.007812 25.742188 9.027344 22.679688 5.964844 Z M 21.511719 15.898438 C 19.09375 18.316406 15.160156 18.316406 12.746094 15.898438 C 10.328125 13.484375 10.328125 9.550781 12.746094 7.132812 C 15.164062 4.71875 19.09375 4.71875 21.511719 7.132812 C 23.925781 9.550781 23.925781 13.484375 21.511719 15.898438 Z M 21.511719 15.898438 " fill-opacity="1" fill-rule="nonzero"/><path fill="#000000" d="M 20.234375 6.800781 C 18.351562 5.554688 15.914062 5.554688 14.027344 6.796875 C 13.839844 6.921875 13.785156 7.175781 13.910156 7.367188 C 13.925781 7.390625 13.945312 7.414062 13.964844 7.433594 C 14.101562 7.566406 14.316406 7.59375 14.484375 7.484375 C 16.09375 6.425781 18.171875 6.425781 19.78125 7.488281 C 19.972656 7.617188 20.226562 7.5625 20.351562 7.371094 C 20.476562 7.183594 20.425781 6.925781 20.234375 6.800781 Z M 20.234375 6.800781 " fill-opacity="1" fill-rule="nonzero"/></svg>