<svg xmlns="http://www.w3.org/2000/svg" xmlns:xlink="http://www.w3.org/1999/xlink" width="40" zoomAndPan="magnify" viewBox="0 0 30 30.000001" height="40" preserveAspectRatio="xMidYMid meet" version="1.0"><defs><clipPath id="d55f744646"><path d="M 0.484375 0 L 29.515625 0 L 29.515625 29.03125 L 0.484375 29.03125 Z M 0.484375 0 " clip-rule="nonzero"/></clipPath><clipPath id="3d8ec214e8"><path d="M 3.386719 3.960938 L 25.886719 3.960938 L 25.886719 26.460938 L 3.386719 26.460938 Z M 3.386719 3.960938 " clip-rule="nonzero"/></clipPath></defs><g clip-path="url(#d55f744646)"><path fill="#ffffff" d="M 0.484375 0 L 29.515625 0 L 29.515625 29.03125 L 0.484375 29.03125 Z M 0.484375 0 " fill-opacity="1" fill-rule="nonzero"/><path fill="#03bff3" d="M 0.484375 0 L 29.515625 0 L 29.515625 29.03125 L 0.484375 29.03125 Z M 0.484375 0 " fill-opacity="1" fill-rule="nonzero"/></g><g clip-path="url(#3d8ec214e8)"><path fill="#ffffff" d="M 23.726562 14.5625 L 23.726562 12.582031 L 25.382812 12.582031 C 25.558594 12.582031 25.683594 12.457031 25.683594 12.28125 L 25.683594 4.304688 C 25.683594 4.128906 25.53125 4.003906 25.382812 3.980469 L 13.695312 3.980469 C 13.519531 3.980469 13.394531 4.128906 13.394531 4.28125 L 13.394531 6.1875 L 11.714844 6.1875 C 8.203125 6.1875 5.367188 9.019531 5.367188 12.53125 L 5.367188 14.539062 C 4.140625 14.636719 3.386719 15.640625 3.386719 17.222656 L 3.386719 19.226562 C 3.386719 20.882812 4.214844 21.910156 5.542969 21.9375 C 6.070312 24.167969 7.902344 25.847656 10.886719 25.921875 C 10.886719 25.921875 12.816406 25.921875 12.84375 25.898438 C 13.015625 26.023438 13.21875 26.097656 13.417969 26.097656 L 15.074219 26.097656 C 15.601562 26.074219 16.027344 25.621094 16 25.070312 C 15.976562 24.570312 15.574219 24.167969 15.074219 24.144531 L 13.394531 24.144531 C 12.867188 24.144531 12.441406 24.570312 12.441406 25.097656 C 12.441406 25.144531 12.441406 25.195312 12.464844 25.246094 L 10.9375 25.246094 C 8.578125 25.144531 7.074219 23.992188 6.398438 22.488281 C 6.445312 22.488281 7.425781 22.488281 7.425781 22.488281 C 8.050781 22.488281 8.554688 21.984375 8.554688 21.382812 L 8.554688 15.0625 C 8.554688 14.4375 8.050781 13.960938 7.425781 13.960938 L 6.523438 13.960938 C 6.320312 13.960938 6.144531 14.011719 5.96875 14.113281 L 5.96875 12.53125 C 5.96875 9.371094 8.527344 6.8125 11.6875 6.8125 L 13.367188 6.8125 L 13.367188 12.28125 C 13.367188 12.457031 13.519531 12.582031 13.667969 12.582031 L 15.574219 12.582031 L 15.574219 14.460938 C 15.574219 14.585938 15.652344 14.714844 15.777344 14.761719 C 15.925781 14.839844 16.050781 14.761719 16.128906 14.6875 L 18.234375 12.582031 L 23.097656 12.582031 L 23.097656 14.0625 C 22.949219 13.984375 22.796875 13.960938 22.621094 13.960938 L 21.71875 13.960938 C 21.09375 13.960938 20.617188 14.460938 20.617188 15.0625 L 20.617188 21.433594 C 20.617188 22.0625 21.117188 22.539062 21.71875 22.539062 L 22.621094 22.539062 C 23.023438 22.539062 23.398438 22.3125 23.601562 21.960938 C 24.953125 21.960938 25.808594 20.933594 25.808594 19.253906 L 25.808594 17.246094 C 25.78125 15.667969 25.003906 14.636719 23.726562 14.5625 Z M 13.394531 24.796875 L 15.074219 24.796875 C 15.25 24.820312 15.398438 24.96875 15.375 25.171875 C 15.351562 25.347656 15.222656 25.472656 15.074219 25.472656 L 13.394531 25.472656 C 13.21875 25.445312 13.066406 25.296875 13.09375 25.097656 C 13.117188 24.945312 13.242188 24.820312 13.394531 24.796875 Z M 3.988281 19.226562 L 3.988281 17.222656 C 3.988281 16.621094 4.140625 15.289062 5.34375 15.164062 L 5.34375 21.285156 C 4.140625 21.132812 3.988281 19.828125 3.988281 19.226562 Z M 15.828125 6.3125 L 23.273438 6.3125 C 23.449219 6.3125 23.574219 6.460938 23.574219 6.613281 C 23.574219 6.761719 23.425781 6.914062 23.273438 6.914062 L 15.828125 6.914062 C 15.652344 6.914062 15.523438 6.761719 15.523438 6.613281 C 15.523438 6.460938 15.652344 6.3125 15.828125 6.3125 Z M 19.238281 8.269531 C 19.238281 8.445312 19.085938 8.570312 18.9375 8.570312 L 17.707031 8.570312 C 17.53125 8.570312 17.40625 8.417969 17.40625 8.269531 C 17.40625 8.117188 17.558594 7.96875 17.707031 7.96875 L 18.9375 7.96875 C 19.085938 7.96875 19.238281 8.09375 19.238281 8.269531 Z M 15.828125 7.941406 L 16.453125 7.941406 C 16.628906 7.941406 16.753906 8.09375 16.753906 8.242188 C 16.753906 8.394531 16.605469 8.542969 16.453125 8.542969 L 15.828125 8.542969 C 15.652344 8.542969 15.523438 8.394531 15.523438 8.242188 C 15.523438 8.09375 15.652344 7.941406 15.828125 7.941406 Z M 20.464844 10.199219 L 15.828125 10.199219 C 15.652344 10.199219 15.523438 10.046875 15.523438 9.898438 C 15.523438 9.746094 15.675781 9.597656 15.828125 9.597656 L 20.441406 9.597656 C 20.617188 9.597656 20.742188 9.746094 20.742188 9.898438 C 20.742188 10.046875 20.617188 10.199219 20.464844 10.199219 Z M 21.417969 8.570312 L 20.164062 8.570312 C 19.988281 8.570312 19.863281 8.417969 19.863281 8.269531 C 19.863281 8.117188 20.015625 7.96875 20.164062 7.96875 L 21.394531 7.96875 C 21.570312 7.96875 21.695312 8.117188 21.695312 8.269531 C 21.695312 8.417969 21.570312 8.570312 21.417969 8.570312 Z M 22.320312 8.269531 C 22.320312 8.09375 22.472656 7.96875 22.621094 7.96875 L 23.25 7.96875 C 23.425781 7.96875 23.550781 8.117188 23.550781 8.269531 C 23.550781 8.417969 23.398438 8.570312 23.25 8.570312 L 22.621094 8.570312 C 22.472656 8.570312 22.320312 8.445312 22.320312 8.269531 Z M 25.15625 19.277344 C 25.15625 19.878906 25.003906 21.234375 23.726562 21.335938 L 23.726562 15.214844 C 25.003906 15.316406 25.15625 16.667969 25.15625 17.269531 Z M 25.15625 19.277344 " fill-opacity="1" fill-rule="nonzero"/></g></svg>