<svg xmlns="http://www.w3.org/2000/svg" xmlns:xlink="http://www.w3.org/1999/xlink" width="40" zoomAndPan="magnify" viewBox="0 0 30 30.000001" height="40" preserveAspectRatio="xMidYMid meet" version="1.0"><defs><clipPath id="0733f644b6"><path d="M 18 15 L 26.886719 15 L 26.886719 24.460938 L 18 24.460938 Z M 18 15 " clip-rule="nonzero"/></clipPath><clipPath id="4cf21fd78f"><path d="M 2.933594 4.863281 L 23 4.863281 L 23 21 L 2.933594 21 Z M 2.933594 4.863281 " clip-rule="nonzero"/></clipPath></defs><g clip-path="url(#0733f644b6)"><path fill="#000000" d="M 22.492188 15.476562 C 22.203125 15.476562 21.917969 15.507812 21.636719 15.5625 C 21.351562 15.621094 21.078125 15.707031 20.8125 15.820312 C 20.546875 15.933594 20.292969 16.070312 20.054688 16.234375 C 19.8125 16.398438 19.589844 16.585938 19.386719 16.792969 C 19.183594 17 19.003906 17.230469 18.84375 17.472656 C 18.683594 17.71875 18.546875 17.976562 18.4375 18.25 C 18.324219 18.523438 18.242188 18.804688 18.1875 19.09375 C 18.128906 19.382812 18.101562 19.675781 18.101562 19.96875 C 18.101562 20.261719 18.128906 20.554688 18.1875 20.84375 C 18.242188 21.132812 18.324219 21.414062 18.4375 21.6875 C 18.546875 21.960938 18.683594 22.21875 18.84375 22.464844 C 19.003906 22.707031 19.183594 22.9375 19.386719 23.144531 C 19.589844 23.351562 19.8125 23.539062 20.054688 23.703125 C 20.292969 23.867188 20.546875 24.003906 20.8125 24.117188 C 21.078125 24.230469 21.351562 24.316406 21.636719 24.375 C 21.917969 24.429688 22.203125 24.460938 22.492188 24.460938 C 22.78125 24.460938 23.066406 24.429688 23.347656 24.375 C 23.632812 24.316406 23.90625 24.230469 24.171875 24.117188 C 24.4375 24.003906 24.691406 23.867188 24.929688 23.703125 C 25.171875 23.539062 25.394531 23.351562 25.597656 23.144531 C 25.800781 22.9375 25.980469 22.707031 26.140625 22.464844 C 26.300781 22.21875 26.4375 21.960938 26.546875 21.6875 C 26.660156 21.414062 26.742188 21.132812 26.796875 20.84375 C 26.855469 20.554688 26.882812 20.261719 26.882812 19.96875 C 26.882812 19.675781 26.855469 19.382812 26.796875 19.09375 C 26.742188 18.804688 26.65625 18.523438 26.546875 18.25 C 26.4375 17.980469 26.300781 17.71875 26.140625 17.476562 C 25.980469 17.230469 25.796875 17.003906 25.59375 16.792969 C 25.390625 16.585938 25.167969 16.398438 24.929688 16.234375 C 24.691406 16.074219 24.4375 15.933594 24.171875 15.820312 C 23.90625 15.707031 23.632812 15.621094 23.347656 15.566406 C 23.066406 15.507812 22.78125 15.476562 22.492188 15.476562 Z M 22.492188 23.644531 C 22.015625 23.644531 21.558594 23.550781 21.117188 23.363281 C 20.675781 23.175781 20.289062 22.910156 19.953125 22.566406 C 19.617188 22.222656 19.355469 21.824219 19.171875 21.375 C 18.992188 20.925781 18.898438 20.457031 18.898438 19.96875 C 18.898438 19.480469 18.992188 19.011719 19.171875 18.5625 C 19.355469 18.113281 19.617188 17.714844 19.953125 17.371094 C 20.289062 17.027344 20.675781 16.761719 21.117188 16.574219 C 21.558594 16.386719 22.015625 16.292969 22.492188 16.292969 C 22.96875 16.292969 23.425781 16.386719 23.867188 16.574219 C 24.308594 16.761719 24.695312 17.027344 25.03125 17.371094 C 25.367188 17.714844 25.628906 18.113281 25.8125 18.5625 C 25.992188 19.011719 26.085938 19.480469 26.085938 19.96875 C 26.082031 20.457031 25.992188 20.925781 25.808594 21.375 C 25.628906 21.824219 25.367188 22.222656 25.03125 22.566406 C 24.695312 22.910156 24.304688 23.175781 23.867188 23.363281 C 23.425781 23.550781 22.96875 23.644531 22.492188 23.644531 Z M 22.492188 23.644531 " fill-opacity="1" fill-rule="nonzero"/></g><g clip-path="url(#4cf21fd78f)"><path fill="#000000" d="M 22.09375 13.605469 L 22.09375 14.253906 C 22.09375 14.367188 22.132812 14.460938 22.210938 14.542969 C 22.289062 14.621094 22.382812 14.660156 22.492188 14.660156 C 22.601562 14.660156 22.695312 14.621094 22.773438 14.542969 C 22.851562 14.460938 22.890625 14.367188 22.890625 14.253906 L 22.890625 6.902344 C 22.890625 6.632812 22.839844 6.375 22.738281 6.125 C 22.636719 5.875 22.492188 5.652344 22.304688 5.460938 C 22.117188 5.269531 21.902344 5.121094 21.660156 5.019531 C 21.414062 4.914062 21.160156 4.863281 20.894531 4.863281 L 4.933594 4.863281 C 4.667969 4.863281 4.414062 4.914062 4.167969 5.019531 C 3.925781 5.121094 3.707031 5.269531 3.519531 5.460938 C 3.335938 5.652344 3.191406 5.875 3.089844 6.125 C 2.988281 6.375 2.9375 6.632812 2.9375 6.902344 L 2.9375 18.335938 C 2.9375 18.609375 2.988281 18.867188 3.089844 19.117188 C 3.191406 19.367188 3.335938 19.589844 3.523438 19.777344 C 3.710938 19.96875 3.925781 20.117188 4.167969 20.222656 C 4.414062 20.324219 4.667969 20.375 4.933594 20.378906 L 16.90625 20.378906 C 17.015625 20.378906 17.109375 20.335938 17.1875 20.257812 C 17.265625 20.175781 17.304688 20.082031 17.304688 19.96875 C 17.304688 19.855469 17.265625 19.761719 17.1875 19.679688 C 17.109375 19.601562 17.015625 19.558594 16.90625 19.558594 L 4.933594 19.558594 C 4.632812 19.558594 4.367188 19.457031 4.144531 19.253906 C 3.917969 19.046875 3.785156 18.792969 3.75 18.488281 L 10.503906 11.546875 L 15.027344 16.175781 C 15.105469 16.253906 15.199219 16.289062 15.308594 16.289062 C 15.414062 16.289062 15.507812 16.25 15.585938 16.171875 C 15.664062 16.089844 15.703125 15.996094 15.703125 15.886719 C 15.703125 15.773438 15.667969 15.679688 15.589844 15.597656 L 13.476562 13.4375 L 17.695312 9.105469 Z M 17.695312 8.121094 C 17.585938 8.121094 17.488281 8.160156 17.414062 8.242188 L 12.914062 12.859375 L 10.785156 10.679688 C 10.707031 10.601562 10.613281 10.5625 10.503906 10.5625 C 10.390625 10.5625 10.296875 10.601562 10.21875 10.683594 L 3.734375 17.347656 L 3.734375 6.902344 C 3.734375 6.742188 3.765625 6.585938 3.824219 6.4375 C 3.886719 6.285156 3.972656 6.152344 4.085938 6.039062 C 4.199219 5.921875 4.328125 5.835938 4.472656 5.773438 C 4.621094 5.710938 4.773438 5.679688 4.933594 5.679688 L 20.894531 5.679688 C 21.054688 5.679688 21.207031 5.710938 21.355469 5.773438 C 21.5 5.835938 21.628906 5.921875 21.742188 6.039062 C 21.855469 6.152344 21.941406 6.285156 22 6.4375 C 22.0625 6.585938 22.09375 6.742188 22.09375 6.902344 L 22.09375 12.449219 L 17.976562 8.242188 C 17.898438 8.160156 17.804688 8.121094 17.695312 8.121094 Z M 17.695312 8.121094 " fill-opacity="1" fill-rule="nonzero"/></g><path fill="#000000" d="M 12.914062 8.128906 C 12.753906 8.128906 12.601562 8.160156 12.457031 8.222656 C 12.308594 8.285156 12.179688 8.371094 12.066406 8.488281 C 11.953125 8.601562 11.867188 8.734375 11.808594 8.886719 C 11.746094 9.035156 11.714844 9.191406 11.714844 9.355469 C 11.714844 9.515625 11.746094 9.671875 11.808594 9.824219 C 11.867188 9.972656 11.953125 10.105469 12.066406 10.21875 C 12.179688 10.335938 12.308594 10.421875 12.457031 10.484375 C 12.601562 10.546875 12.753906 10.578125 12.914062 10.578125 C 13.074219 10.578125 13.226562 10.546875 13.371094 10.484375 C 13.519531 10.421875 13.648438 10.335938 13.761719 10.21875 C 13.871094 10.105469 13.960938 9.972656 14.019531 9.824219 C 14.082031 9.671875 14.109375 9.515625 14.109375 9.355469 C 14.109375 9.191406 14.082031 9.035156 14.019531 8.886719 C 13.957031 8.734375 13.871094 8.601562 13.761719 8.488281 C 13.648438 8.375 13.519531 8.285156 13.371094 8.222656 C 13.226562 8.160156 13.074219 8.128906 12.914062 8.128906 Z M 12.914062 9.761719 C 12.804688 9.761719 12.710938 9.722656 12.632812 9.640625 C 12.554688 9.5625 12.515625 9.464844 12.515625 9.355469 C 12.515625 9.242188 12.554688 9.144531 12.632812 9.066406 C 12.710938 8.984375 12.804688 8.945312 12.914062 8.945312 C 13.023438 8.945312 13.117188 8.984375 13.195312 9.066406 C 13.273438 9.144531 13.3125 9.242188 13.3125 9.355469 C 13.3125 9.464844 13.273438 9.5625 13.195312 9.640625 C 13.117188 9.722656 13.023438 9.761719 12.914062 9.761719 Z M 12.914062 9.761719 " fill-opacity="1" fill-rule="nonzero"/><path fill="#000000" d="M 22.773438 17.230469 C 22.695312 17.152344 22.601562 17.113281 22.492188 17.113281 C 22.382812 17.113281 22.289062 17.152344 22.210938 17.230469 L 20.613281 18.863281 C 20.539062 18.945312 20.5 19.039062 20.5 19.152344 C 20.503906 19.261719 20.542969 19.355469 20.617188 19.4375 C 20.695312 19.515625 20.789062 19.554688 20.898438 19.554688 C 21.007812 19.554688 21.101562 19.519531 21.179688 19.441406 L 22.09375 18.503906 L 22.09375 22.417969 C 22.09375 22.53125 22.132812 22.628906 22.210938 22.707031 C 22.289062 22.785156 22.382812 22.828125 22.492188 22.828125 C 22.601562 22.828125 22.695312 22.785156 22.773438 22.707031 C 22.851562 22.628906 22.890625 22.53125 22.890625 22.417969 L 22.890625 18.503906 L 23.804688 19.441406 C 23.882812 19.519531 23.976562 19.554688 24.085938 19.554688 C 24.195312 19.554688 24.289062 19.515625 24.367188 19.4375 C 24.441406 19.355469 24.480469 19.261719 24.484375 19.152344 C 24.484375 19.039062 24.445312 18.945312 24.371094 18.863281 Z M 22.773438 17.230469 " fill-opacity="1" fill-rule="nonzero"/></svg>