<svg xmlns="http://www.w3.org/2000/svg" xmlns:xlink="http://www.w3.org/1999/xlink" width="40" zoomAndPan="magnify" viewBox="0 0 30 30.000001" height="40" preserveAspectRatio="xMidYMid meet" version="1.0"><defs><clipPath id="7a8dc22f9f"><path d="M 5.988281 2.902344 L 24 2.902344 L 24 26.128906 L 5.988281 26.128906 Z M 5.988281 2.902344 " clip-rule="nonzero"/></clipPath></defs><g clip-path="url(#7a8dc22f9f)"><path fill="#000000" d="M 22.992188 5.476562 L 19.144531 5.476562 L 17.117188 3.457031 C 17.082031 3.425781 17.050781 3.402344 17.019531 3.375 C 16.699219 3.109375 16.199219 2.917969 15.800781 2.917969 L 7 2.917969 C 6.445312 2.917969 5.988281 3.371094 5.988281 3.925781 L 5.988281 22.71875 C 5.988281 23.273438 6.445312 23.726562 7 23.726562 L 8.152344 23.726562 L 8.152344 25.273438 C 8.152344 25.828125 8.605469 26.285156 9.160156 26.285156 L 22.992188 26.285156 C 23.546875 26.285156 24 25.828125 24 25.273438 L 24 6.480469 C 24 5.925781 23.546875 5.476562 22.992188 5.476562 Z M 16.808594 4.308594 L 20.433594 7.90625 L 16.996094 7.90625 C 16.894531 7.90625 16.804688 7.820312 16.804688 7.714844 L 16.804688 4.308594 Z M 6.808594 22.71875 L 6.808594 3.925781 C 6.808594 3.824219 6.894531 3.734375 7 3.734375 L 15.800781 3.734375 C 15.863281 3.734375 15.929688 3.746094 16.003906 3.765625 C 15.996094 3.816406 15.992188 3.871094 15.992188 3.921875 L 15.992188 7.710938 C 15.992188 8.265625 16.445312 8.722656 17 8.722656 L 20.828125 8.722656 C 20.886719 8.722656 20.941406 8.71875 20.988281 8.710938 C 21.007812 8.78125 21.015625 8.851562 21.015625 8.914062 L 21.015625 22.714844 C 21.015625 22.820312 20.929688 22.90625 20.824219 22.90625 L 7 22.90625 C 6.894531 22.910156 6.808594 22.824219 6.808594 22.71875 Z M 23.179688 25.273438 C 23.179688 25.378906 23.09375 25.464844 22.992188 25.464844 L 9.160156 25.464844 C 9.054688 25.464844 8.96875 25.378906 8.96875 25.273438 L 8.96875 23.726562 L 20.828125 23.726562 C 21.382812 23.726562 21.839844 23.273438 21.839844 22.71875 L 21.839844 8.914062 C 21.839844 8.519531 21.648438 8.027344 21.378906 7.707031 C 21.355469 7.671875 21.328125 7.640625 21.289062 7.605469 L 19.96875 6.292969 L 22.992188 6.292969 C 23.09375 6.292969 23.179688 6.378906 23.179688 6.484375 Z M 18.726562 11.777344 L 9.101562 11.777344 C 8.90625 11.777344 8.753906 11.621094 8.753906 11.429688 C 8.753906 11.238281 8.910156 11.082031 9.101562 11.082031 L 18.726562 11.082031 C 18.921875 11.082031 19.074219 11.238281 19.074219 11.429688 C 19.074219 11.621094 18.921875 11.777344 18.726562 11.777344 Z M 18.726562 14.335938 L 9.101562 14.335938 C 8.90625 14.335938 8.753906 14.179688 8.753906 13.988281 C 8.753906 13.796875 8.910156 13.636719 9.101562 13.636719 L 18.726562 13.636719 C 18.921875 13.636719 19.074219 13.796875 19.074219 13.988281 C 19.074219 14.179688 18.921875 14.335938 18.726562 14.335938 Z M 18.726562 16.890625 L 9.101562 16.890625 C 8.90625 16.890625 8.753906 16.730469 8.753906 16.539062 C 8.753906 16.351562 8.910156 16.191406 9.101562 16.191406 L 18.726562 16.191406 C 18.921875 16.191406 19.074219 16.351562 19.074219 16.539062 C 19.074219 16.730469 18.921875 16.890625 18.726562 16.890625 Z M 13.230469 19.449219 L 9.101562 19.449219 C 8.90625 19.449219 8.753906 19.289062 8.753906 19.097656 C 8.753906 18.902344 8.910156 18.75 9.101562 18.75 L 13.230469 18.75 C 13.425781 18.75 13.578125 18.90625 13.578125 19.097656 C 13.578125 19.289062 13.425781 19.449219 13.230469 19.449219 Z M 13.230469 19.449219 " fill-opacity="1" fill-rule="nonzero"/></g></svg>