<svg xmlns="http://www.w3.org/2000/svg" xmlns:xlink="http://www.w3.org/1999/xlink" width="40" zoomAndPan="magnify" viewBox="0 0 30 30.000001" height="40" preserveAspectRatio="xMidYMid meet" version="1.0"><defs><clipPath id="07c582c407"><path d="M 0.484375 0 L 29.515625 0 L 29.515625 29.03125 L 0.484375 29.03125 Z M 0.484375 0 " clip-rule="nonzero"/></clipPath><clipPath id="9fb5bd6f40"><path d="M 10 4.457031 L 20 4.457031 L 20 15 L 10 15 Z M 10 4.457031 " clip-rule="nonzero"/></clipPath><clipPath id="b7d094c447"><path d="M 5.832031 14 L 23.980469 14 L 23.980469 24.78125 L 5.832031 24.78125 Z M 5.832031 14 " clip-rule="nonzero"/></clipPath></defs><g clip-path="url(#07c582c407)"><path fill="#ffffff" d="M 0.484375 0 L 29.515625 0 L 29.515625 29.03125 L 0.484375 29.03125 Z M 0.484375 0 " fill-opacity="1" fill-rule="nonzero"/><path fill="#03bff3" d="M 0.484375 0 L 29.515625 0 L 29.515625 29.03125 L 0.484375 29.03125 Z M 0.484375 0 " fill-opacity="1" fill-rule="nonzero"/></g><g clip-path="url(#9fb5bd6f40)"><path fill="#ffffff" d="M 14.996094 14.886719 C 17.6875 14.886719 19.878906 12.03125 19.878906 9.339844 C 19.878906 6.648438 17.6875 4.457031 14.996094 4.457031 C 12.304688 4.457031 10.117188 6.648438 10.117188 9.339844 C 10.117188 12.03125 12.304688 14.886719 14.996094 14.886719 Z M 14.996094 14.886719 " fill-opacity="1" fill-rule="nonzero"/></g><g clip-path="url(#b7d094c447)"><path fill="#ffffff" d="M 18.660156 14.9375 C 17.714844 15.660156 16.535156 16.085938 15.253906 16.085938 L 14.738281 16.085938 C 13.460938 16.085938 12.277344 15.660156 11.332031 14.9375 C 8.242188 15.4375 5.878906 18.117188 5.878906 21.347656 C 5.878906 23.125 9.960938 24.5625 14.996094 24.5625 C 20.03125 24.5625 24.113281 23.125 24.113281 21.347656 C 24.113281 18.117188 21.753906 15.4375 18.660156 14.9375 Z M 18.660156 14.9375 " fill-opacity="1" fill-rule="nonzero"/></g></svg>