<svg xmlns="http://www.w3.org/2000/svg" xmlns:xlink="http://www.w3.org/1999/xlink" width="40" zoomAndPan="magnify" viewBox="0 0 30 30.000001" height="40" preserveAspectRatio="xMidYMid meet" version="1.0"><defs><clipPath id="c1bd96a208"><path d="M 6.613281 6.148438 L 23.304688 6.148438 L 23.304688 22.84375 L 6.613281 22.84375 Z M 6.613281 6.148438 " clip-rule="nonzero"/></clipPath></defs><g clip-path="url(#c1bd96a208)"><path fill="#03bff3" d="M 10.882812 12.214844 L 12.050781 12.214844 C 12.183594 12.214844 12.289062 12.109375 12.289062 11.976562 L 12.289062 10.808594 C 12.289062 10.675781 12.183594 10.570312 12.050781 10.570312 L 10.882812 10.570312 C 10.75 10.570312 10.644531 10.675781 10.644531 10.808594 L 10.644531 11.976562 C 10.644531 12.109375 10.75 12.214844 10.882812 12.214844 Z M 11.117188 11.042969 L 11.816406 11.042969 L 11.816406 11.742188 L 11.117188 11.742188 Z M 13.179688 12.214844 L 14.351562 12.214844 C 14.484375 12.214844 14.589844 12.109375 14.589844 11.976562 L 14.589844 10.808594 C 14.589844 10.675781 14.484375 10.570312 14.351562 10.570312 L 13.179688 10.570312 C 13.050781 10.570312 12.945312 10.675781 12.945312 10.808594 L 12.945312 11.976562 C 12.945312 12.109375 13.050781 12.214844 13.179688 12.214844 Z M 13.417969 11.042969 L 14.113281 11.042969 L 14.113281 11.742188 L 13.417969 11.742188 Z M 15.480469 12.214844 L 16.652344 12.214844 C 16.78125 12.214844 16.890625 12.109375 16.890625 11.976562 L 16.890625 10.808594 C 16.890625 10.675781 16.78125 10.570312 16.652344 10.570312 L 15.480469 10.570312 C 15.351562 10.570312 15.246094 10.675781 15.246094 10.808594 L 15.246094 11.976562 C 15.246094 12.109375 15.351562 12.214844 15.480469 12.214844 Z M 15.71875 11.042969 L 16.414062 11.042969 L 16.414062 11.742188 L 15.71875 11.742188 Z M 9.75 12.871094 L 8.582031 12.871094 C 8.449219 12.871094 8.34375 12.976562 8.34375 13.105469 L 8.34375 14.277344 C 8.34375 14.410156 8.449219 14.515625 8.582031 14.515625 L 9.75 14.515625 C 9.882812 14.515625 9.988281 14.410156 9.988281 14.277344 L 9.988281 13.105469 C 9.988281 12.976562 9.882812 12.871094 9.75 12.871094 Z M 9.515625 14.039062 L 8.816406 14.039062 L 8.816406 13.34375 L 9.515625 13.34375 Z M 10.882812 14.515625 L 12.050781 14.515625 C 12.183594 14.515625 12.289062 14.410156 12.289062 14.277344 L 12.289062 13.105469 C 12.289062 12.976562 12.183594 12.871094 12.050781 12.871094 L 10.882812 12.871094 C 10.75 12.871094 10.644531 12.976562 10.644531 13.105469 L 10.644531 14.277344 C 10.644531 14.410156 10.75 14.515625 10.882812 14.515625 Z M 11.117188 13.34375 L 11.816406 13.34375 L 11.816406 14.039062 L 11.117188 14.039062 Z M 9.75 15.171875 L 8.582031 15.171875 C 8.449219 15.171875 8.34375 15.277344 8.34375 15.40625 L 8.34375 16.578125 C 8.34375 16.707031 8.449219 16.816406 8.582031 16.816406 L 9.75 16.816406 C 9.882812 16.816406 9.988281 16.707031 9.988281 16.578125 L 9.988281 15.40625 C 9.988281 15.277344 9.882812 15.171875 9.75 15.171875 Z M 9.515625 16.339844 L 8.816406 16.339844 L 8.816406 15.644531 L 9.515625 15.644531 Z M 9.75 10.570312 L 8.582031 10.570312 C 8.449219 10.570312 8.34375 10.675781 8.34375 10.808594 L 8.34375 11.976562 C 8.34375 12.109375 8.449219 12.214844 8.582031 12.214844 L 9.75 12.214844 C 9.882812 12.214844 9.988281 12.109375 9.988281 11.976562 L 9.988281 10.808594 C 9.988281 10.675781 9.882812 10.570312 9.75 10.570312 Z M 9.515625 11.742188 L 8.816406 11.742188 L 8.816406 11.042969 L 9.515625 11.042969 Z M 13.179688 14.515625 L 14.351562 14.515625 C 14.484375 14.515625 14.589844 14.410156 14.589844 14.277344 L 14.589844 13.105469 C 14.589844 12.976562 14.484375 12.871094 14.351562 12.871094 L 13.179688 12.871094 C 13.050781 12.871094 12.945312 12.976562 12.945312 13.105469 L 12.945312 14.277344 C 12.945312 14.410156 13.050781 14.515625 13.179688 14.515625 Z M 13.417969 13.34375 L 14.113281 13.34375 L 14.113281 14.039062 L 13.417969 14.039062 Z M 20.488281 14.59375 C 20.230469 14.445312 19.9375 14.402344 19.648438 14.46875 L 19.109375 12.453125 C 19.039062 12.1875 18.867188 11.96875 18.632812 11.832031 C 18.625 11.828125 18.617188 11.824219 18.613281 11.820312 L 18.613281 8.460938 C 18.613281 7.800781 18.074219 7.257812 17.410156 7.257812 L 16.65625 7.257812 L 16.65625 6.386719 C 16.65625 6.253906 16.550781 6.148438 16.421875 6.148438 L 15.179688 6.148438 C 15.050781 6.148438 14.941406 6.253906 14.941406 6.386719 L 14.941406 7.257812 L 13.472656 7.257812 L 13.472656 6.386719 C 13.472656 6.253906 13.367188 6.148438 13.238281 6.148438 L 11.996094 6.148438 C 11.863281 6.148438 11.757812 6.253906 11.757812 6.386719 L 11.757812 7.257812 L 10.289062 7.257812 L 10.289062 6.386719 C 10.289062 6.253906 10.183594 6.148438 10.054688 6.148438 L 8.8125 6.148438 C 8.679688 6.148438 8.574219 6.253906 8.574219 6.386719 L 8.574219 7.257812 L 7.824219 7.257812 C 7.160156 7.257812 6.621094 7.800781 6.621094 8.460938 L 6.621094 16.785156 C 6.621094 17.445312 7.160156 17.984375 7.824219 17.984375 L 10.164062 17.984375 C 10.175781 18.054688 10.1875 18.121094 10.207031 18.191406 C 10.4375 19.050781 11.21875 19.621094 12.070312 19.621094 C 12.238281 19.621094 12.40625 19.601562 12.570312 19.554688 L 12.660156 19.53125 L 13.851562 22.519531 C 13.914062 22.667969 14.03125 22.785156 14.179688 22.839844 C 14.246094 22.863281 14.3125 22.875 14.382812 22.875 C 14.472656 22.875 14.5625 22.855469 14.644531 22.8125 L 15.128906 22.5625 C 15.390625 22.429688 15.507812 22.117188 15.398438 21.839844 L 14.257812 18.964844 C 15.941406 18.722656 17.535156 18.800781 18.789062 19.183594 L 18.804688 19.238281 C 18.875 19.503906 19.042969 19.722656 19.28125 19.859375 C 19.441406 19.953125 19.617188 20 19.792969 20 C 19.882812 20 19.972656 19.988281 20.058594 19.964844 C 20.324219 19.894531 20.542969 19.722656 20.683594 19.484375 C 20.820312 19.246094 20.855469 18.972656 20.785156 18.707031 L 20.246094 16.691406 C 20.527344 16.605469 20.761719 16.421875 20.90625 16.164062 C 21.0625 15.898438 21.101562 15.589844 21.023438 15.292969 C 20.941406 14.996094 20.753906 14.746094 20.488281 14.59375 Z M 15.417969 6.621094 L 16.183594 6.621094 L 16.183594 8.347656 L 15.417969 8.347656 Z M 12.234375 6.621094 L 13 6.621094 L 13 8.347656 L 12.234375 8.347656 Z M 9.050781 6.621094 L 9.816406 6.621094 L 9.816406 8.347656 L 9.050781 8.347656 Z M 7.824219 7.734375 L 8.574219 7.734375 L 8.574219 8.585938 C 8.574219 8.71875 8.679688 8.824219 8.8125 8.824219 L 10.054688 8.824219 C 10.183594 8.824219 10.289062 8.71875 10.289062 8.585938 L 10.289062 7.734375 L 11.757812 7.734375 L 11.757812 8.585938 C 11.757812 8.71875 11.863281 8.824219 11.996094 8.824219 L 13.238281 8.824219 C 13.367188 8.824219 13.472656 8.71875 13.472656 8.585938 L 13.472656 7.734375 L 14.941406 7.734375 L 14.941406 8.585938 C 14.941406 8.71875 15.050781 8.824219 15.179688 8.824219 L 16.421875 8.824219 C 16.550781 8.824219 16.65625 8.71875 16.65625 8.585938 L 16.65625 7.734375 L 17.410156 7.734375 C 17.8125 7.734375 18.136719 8.058594 18.136719 8.460938 L 18.136719 9.398438 L 7.09375 9.398438 L 7.09375 8.460938 C 7.09375 8.058594 7.421875 7.734375 7.824219 7.734375 Z M 10.148438 17.511719 L 7.824219 17.511719 C 7.421875 17.511719 7.09375 17.183594 7.09375 16.785156 L 7.09375 9.871094 L 18.136719 9.871094 L 18.136719 11.691406 C 18.042969 11.691406 17.945312 11.703125 17.851562 11.726562 C 17.589844 11.796875 17.367188 11.96875 17.230469 12.207031 C 17.09375 12.445312 17.054688 12.71875 17.128906 12.984375 L 17.140625 13.039062 C 16.242188 14.003906 14.890625 14.871094 13.296875 15.507812 C 13.277344 15.484375 13.257812 15.46875 13.230469 15.453125 C 13.179688 15.421875 13.113281 15.414062 13.050781 15.429688 L 11.570312 15.828125 C 11.074219 15.960938 10.660156 16.277344 10.402344 16.726562 C 10.261719 16.972656 10.175781 17.238281 10.148438 17.511719 Z M 12.449219 19.097656 C 12.324219 19.132812 12.195312 19.148438 12.070312 19.148438 C 11.429688 19.148438 10.839844 18.71875 10.664062 18.066406 C 10.566406 17.695312 10.617188 17.300781 10.8125 16.964844 C 11.007812 16.625 11.320312 16.382812 11.695312 16.285156 L 12.945312 15.949219 L 13.699219 18.761719 Z M 14.914062 22.140625 L 14.429688 22.390625 C 14.394531 22.40625 14.363281 22.402344 14.347656 22.394531 C 14.332031 22.390625 14.308594 22.375 14.292969 22.34375 L 13.121094 19.40625 L 13.847656 19.214844 L 14.957031 22.015625 C 14.976562 22.066406 14.957031 22.117188 14.914062 22.140625 Z M 14.121094 18.503906 L 13.441406 15.960938 C 14.996094 15.34375 16.339844 14.507812 17.285156 13.570312 L 18.644531 18.652344 C 17.359375 18.3125 15.777344 18.261719 14.121094 18.503906 Z M 20.273438 19.25 C 20.199219 19.378906 20.078125 19.46875 19.9375 19.507812 C 19.796875 19.542969 19.648438 19.523438 19.519531 19.449219 C 19.390625 19.375 19.300781 19.257812 19.261719 19.117188 L 17.585938 12.863281 C 17.546875 12.71875 17.566406 12.570312 17.640625 12.441406 C 17.714844 12.316406 17.832031 12.222656 17.976562 12.183594 C 18.023438 12.171875 18.070312 12.167969 18.117188 12.167969 C 18.214844 12.167969 18.308594 12.191406 18.394531 12.242188 C 18.523438 12.316406 18.613281 12.433594 18.652344 12.574219 L 20.328125 18.832031 C 20.367188 18.972656 20.347656 19.121094 20.273438 19.25 Z M 20.496094 15.929688 C 20.414062 16.074219 20.28125 16.179688 20.121094 16.234375 L 19.773438 14.929688 C 19.9375 14.894531 20.105469 14.917969 20.25 15.003906 C 20.40625 15.09375 20.519531 15.242188 20.566406 15.414062 C 20.613281 15.589844 20.585938 15.773438 20.496094 15.929688 Z M 23.171875 14.960938 L 22.078125 15.253906 C 22.058594 15.261719 22.039062 15.261719 22.019531 15.261719 C 21.914062 15.261719 21.816406 15.191406 21.789062 15.085938 C 21.753906 14.960938 21.832031 14.832031 21.957031 14.796875 L 23.050781 14.503906 C 23.175781 14.46875 23.304688 14.546875 23.339844 14.671875 C 23.375 14.796875 23.300781 14.929688 23.171875 14.960938 Z M 20.683594 13.730469 C 20.589844 13.636719 20.589844 13.488281 20.683594 13.394531 L 21.527344 12.550781 C 21.621094 12.457031 21.769531 12.457031 21.863281 12.550781 C 21.953125 12.644531 21.953125 12.792969 21.863281 12.886719 L 21.019531 13.730469 C 20.972656 13.777344 20.910156 13.800781 20.851562 13.800781 C 20.789062 13.800781 20.730469 13.777344 20.683594 13.730469 Z M 23.121094 17.246094 C 23.09375 17.351562 22.996094 17.421875 22.890625 17.421875 C 22.871094 17.421875 22.851562 17.417969 22.828125 17.414062 L 21.675781 17.105469 C 21.550781 17.070312 21.476562 16.941406 21.507812 16.816406 C 21.542969 16.6875 21.671875 16.613281 21.800781 16.648438 L 22.953125 16.957031 C 23.078125 16.992188 23.152344 17.121094 23.121094 17.246094 Z M 23.121094 17.246094 " fill-opacity="1" fill-rule="nonzero"/></g></svg>