<svg xmlns="http://www.w3.org/2000/svg" xmlns:xlink="http://www.w3.org/1999/xlink" width="40" zoomAndPan="magnify" viewBox="0 0 30 30.000001" height="40" preserveAspectRatio="xMidYMid meet" version="1.0"><defs><clipPath id="2628f41c26"><path d="M 4.355469 4.097656 L 25.402344 4.097656 L 25.402344 25 L 4.355469 25 Z M 4.355469 4.097656 " clip-rule="nonzero"/></clipPath></defs><g clip-path="url(#2628f41c26)"><path fill="#03bff3" d="M 21.40625 18.664062 C 19.53125 15.472656 14.800781 16.039062 13.773438 19.605469 C 13.003906 22.1875 15.058594 24.910156 17.75 24.898438 C 20.9375 24.929688 22.996094 21.429688 21.40625 18.664062 Z M 21.40625 19.882812 C 19.914062 19.175781 17.992188 19.75 17.152344 21.160156 C 16.984375 20.976562 16.828125 20.777344 16.679688 20.574219 C 17.667969 19.359375 19.039062 18.542969 20.578125 18.269531 C 20.976562 18.726562 21.265625 19.285156 21.40625 19.882812 Z M 17.78125 17.007812 C 18.675781 17.007812 19.515625 17.320312 20.1875 17.890625 C 18.710938 18.222656 17.394531 19.023438 16.410156 20.1875 C 16.355469 20.101562 16.304688 20.011719 16.253906 19.921875 C 17.078125 19.207031 17.515625 18.121094 17.390625 17.027344 C 17.523438 17.015625 17.652344 17.007812 17.78125 17.007812 Z M 15.742188 17.617188 C 16.109375 17.375 16.523438 17.199219 16.949219 17.097656 C 17.039062 17.996094 16.703125 18.890625 16.050781 19.503906 C 15.796875 18.949219 15.617188 18.371094 15.527344 17.773438 C 15.597656 17.71875 15.667969 17.664062 15.742188 17.617188 Z M 14.097656 20.230469 C 14.203125 19.4375 14.574219 18.695312 15.128906 18.121094 C 15.242188 18.699219 15.429688 19.265625 15.6875 19.800781 C 15.214844 20.125 14.667969 20.304688 14.089844 20.3125 C 14.09375 20.28125 14.09375 20.253906 14.097656 20.230469 Z M 14.058594 20.761719 C 14.722656 20.757812 15.355469 20.566406 15.902344 20.203125 C 15.972656 20.328125 16.042969 20.449219 16.121094 20.566406 C 15.558594 21.332031 15.15625 22.214844 14.941406 23.136719 C 14.378906 22.472656 14.066406 21.644531 14.058594 20.761719 Z M 16.800781 24.320312 C 16.269531 24.171875 15.722656 23.894531 15.320312 23.523438 C 15.488281 22.605469 15.855469 21.726562 16.390625 20.957031 C 16.554688 21.179688 16.734375 21.386719 16.921875 21.585938 C 16.527344 22.445312 16.53125 23.496094 16.929688 24.355469 C 16.890625 24.34375 16.84375 24.335938 16.800781 24.320312 Z M 20.230469 23.53125 C 19.488281 24.179688 18.476562 24.515625 17.484375 24.4375 C 17.035156 23.691406 16.953125 22.726562 17.269531 21.917969 C 18.117188 22.691406 19.132812 23.242188 20.234375 23.523438 C 20.234375 23.527344 20.234375 23.53125 20.230469 23.53125 Z M 21.488281 21.070312 C 21.414062 21.828125 21.105469 22.566406 20.605469 23.152344 C 19.425781 22.902344 18.351562 22.328125 17.472656 21.492188 C 18.226562 20.105469 20.144531 19.597656 21.492188 20.433594 C 21.507812 20.644531 21.503906 20.859375 21.488281 21.070312 Z M 21.519531 4.847656 C 19.25 4.847656 17.402344 6.695312 17.402344 8.964844 C 17.625 14.429688 25.414062 14.429688 25.636719 8.964844 C 25.636719 6.695312 23.792969 4.847656 21.519531 4.847656 Z M 21.519531 12.632812 C 19.5 12.632812 17.851562 10.988281 17.851562 8.964844 C 18.050781 4.097656 24.992188 4.097656 25.191406 8.964844 C 25.1875 10.992188 23.542969 12.632812 21.519531 12.632812 Z M 21.902344 8.964844 C 21.902344 9.195312 21.695312 9.378906 21.46875 9.339844 L 20.375 10.476562 C 20.285156 10.5625 20.144531 10.566406 20.058594 10.480469 C 19.96875 10.390625 19.964844 10.25 20.050781 10.164062 L 21.144531 9.03125 C 21.125 8.941406 21.148438 8.839844 21.199219 8.765625 L 20.316406 6.558594 C 20.269531 6.441406 20.324219 6.3125 20.441406 6.265625 C 20.554688 6.21875 20.6875 6.273438 20.730469 6.390625 L 21.617188 8.597656 C 21.777344 8.640625 21.902344 8.785156 21.902344 8.964844 Z M 21.292969 6.335938 L 21.292969 5.9375 C 21.292969 5.8125 21.394531 5.710938 21.519531 5.710938 C 21.644531 5.710938 21.746094 5.8125 21.746094 5.9375 L 21.746094 6.335938 C 21.742188 6.628906 21.292969 6.628906 21.292969 6.335938 Z M 21.746094 11.597656 L 21.746094 11.996094 C 21.746094 12.121094 21.644531 12.222656 21.519531 12.222656 C 21.394531 12.222656 21.292969 12.121094 21.292969 11.996094 L 21.292969 11.597656 C 21.292969 11.304688 21.742188 11.304688 21.746094 11.597656 Z M 19.113281 8.964844 C 19.113281 9.089844 19.015625 9.191406 18.890625 9.191406 L 18.488281 9.191406 C 18.363281 9.191406 18.265625 9.089844 18.265625 8.964844 C 18.265625 8.839844 18.363281 8.742188 18.488281 8.742188 L 18.890625 8.742188 C 19.011719 8.742188 19.113281 8.839844 19.113281 8.964844 Z M 24.773438 8.964844 C 24.773438 9.089844 24.675781 9.191406 24.550781 9.191406 L 24.148438 9.191406 C 24.023438 9.191406 23.925781 9.089844 23.925781 8.964844 C 23.925781 8.839844 24.023438 8.742188 24.148438 8.742188 L 24.550781 8.742188 C 24.675781 8.742188 24.773438 8.839844 24.773438 8.964844 Z M 6.695312 15.648438 C 6.71875 15.785156 6.609375 15.921875 6.46875 15.917969 C 6.359375 15.917969 6.265625 15.84375 6.242188 15.734375 C 6.144531 15.191406 6.089844 14.632812 6.089844 14.074219 C 6.09375 13.773438 6.539062 13.773438 6.542969 14.074219 C 6.546875 14.597656 6.597656 15.132812 6.695312 15.648438 Z M 12.960938 22.609375 C 12.929688 22.730469 12.800781 22.796875 12.679688 22.765625 C 12.144531 22.613281 11.621094 22.414062 11.121094 22.164062 C 11.007812 22.109375 10.960938 21.972656 11.015625 21.859375 C 11.074219 21.746094 11.207031 21.699219 11.320312 21.753906 C 11.796875 21.992188 12.292969 22.183594 12.800781 22.324219 C 12.925781 22.363281 12.996094 22.488281 12.960938 22.609375 Z M 12.488281 5.628906 C 12.449219 5.507812 12.519531 5.378906 12.640625 5.34375 C 13.175781 5.191406 13.730469 5.085938 14.285156 5.035156 C 14.410156 5.019531 14.519531 5.113281 14.535156 5.238281 C 14.546875 5.363281 14.453125 5.476562 14.328125 5.488281 C 13.804688 5.539062 13.277344 5.640625 12.769531 5.785156 C 12.648438 5.816406 12.519531 5.75 12.488281 5.628906 Z M 9.972656 20.921875 C 10.210938 21.101562 9.941406 21.460938 9.699219 21.285156 C 9.253906 20.949219 8.835938 20.570312 8.460938 20.15625 C 8.378906 20.066406 8.382812 19.921875 8.476562 19.835938 C 8.570312 19.75 8.714844 19.757812 8.796875 19.847656 C 9.15625 20.246094 9.554688 20.605469 9.972656 20.921875 Z M 15.707031 5.234375 C 15.71875 5.109375 15.832031 5.019531 15.957031 5.03125 C 16.507812 5.078125 17.0625 5.179688 17.597656 5.332031 C 17.71875 5.363281 17.789062 5.488281 17.757812 5.609375 C 17.722656 5.734375 17.59375 5.796875 17.476562 5.769531 C 16.96875 5.628906 16.441406 5.53125 15.914062 5.484375 C 15.789062 5.472656 15.695312 5.359375 15.707031 5.234375 Z M 7.839844 18.589844 C 7.992188 18.84375 7.613281 19.082031 7.453125 18.832031 C 7.15625 18.363281 6.90625 17.855469 6.707031 17.339844 C 6.660156 17.222656 6.71875 17.089844 6.835938 17.042969 C 6.953125 17 7.085938 17.058594 7.132812 17.171875 C 7.324219 17.664062 7.558594 18.140625 7.839844 18.589844 Z M 24.203125 14.015625 C 24.207031 14.585938 24.152344 15.15625 24.050781 15.714844 C 23.988281 16.007812 23.550781 15.925781 23.601562 15.632812 C 23.699219 15.101562 23.746094 14.558594 23.746094 14.015625 C 23.753906 13.714844 24.199219 13.714844 24.203125 14.015625 Z M 23.59375 17.320312 C 23.394531 17.835938 23.144531 18.339844 22.847656 18.816406 C 22.808594 18.882812 22.734375 18.925781 22.65625 18.925781 C 22.488281 18.929688 22.367188 18.722656 22.464844 18.578125 C 22.746094 18.128906 22.984375 17.648438 23.175781 17.15625 C 23.277344 16.878906 23.703125 17.039062 23.59375 17.320312 Z M 13.289062 7.035156 L 12.941406 7.070312 C 12.851562 7.035156 12.765625 6.992188 12.699219 6.921875 C 12.554688 6.789062 12.578125 6.609375 12.375 6.589844 C 11.511719 6.53125 10.644531 6.625 9.820312 6.867188 C 9.527344 6.757812 9.207031 6.710938 8.894531 6.734375 C 8.152344 6.25 7.316406 5.902344 6.441406 5.71875 C 6.359375 5.703125 6.273438 5.734375 6.21875 5.800781 C 6.125 5.933594 5.941406 6.042969 5.804688 6.074219 L 5.503906 5.957031 C 5.339844 5.886719 5.132812 6.003906 5.113281 6.1875 C 5.113281 6.1875 4.375 11.5 4.375 11.5 C 4.359375 11.632812 4.429688 11.757812 4.554688 11.808594 C 4.554688 11.808594 7.917969 13.140625 7.917969 13.140625 C 7.9375 13.144531 7.953125 13.148438 7.96875 13.152344 C 7.96875 13.152344 8.945312 13.285156 8.945312 13.285156 C 8.960938 13.289062 8.980469 13.289062 9 13.285156 C 9 13.285156 12.601562 12.921875 12.601562 12.921875 C 12.734375 12.910156 12.835938 12.804688 12.855469 12.675781 L 13.59375 7.363281 C 13.628906 7.183594 13.46875 7.015625 13.289062 7.035156 Z M 9.496094 7.242188 C 9.625 7.261719 9.746094 7.355469 9.878906 7.320312 C 10.632812 7.089844 11.425781 6.996094 12.214844 7.03125 C 12.238281 7.066406 12.257812 7.097656 12.289062 7.136719 C 11.652344 7.199219 10.378906 7.328125 9.746094 7.390625 C 9.746094 7.390625 9.476562 7.351562 9.476562 7.351562 Z M 6.480469 6.191406 C 7.277344 6.375 8.035156 6.703125 8.710938 7.15625 C 8.8125 7.226562 8.9375 7.179688 9.046875 7.1875 L 9.03125 7.292969 L 8.824219 7.265625 C 8.003906 6.945312 7.183594 6.621094 6.363281 6.292969 C 6.40625 6.261719 6.441406 6.222656 6.480469 6.191406 Z M 7.828125 12.609375 L 4.847656 11.429688 L 5.539062 6.449219 C 6.023438 6.640625 8.003906 7.425781 8.519531 7.628906 Z M 8.792969 12.804688 L 8.265625 12.730469 C 8.4375 11.484375 8.785156 8.980469 8.957031 7.738281 L 9.484375 7.8125 Z M 12.433594 12.484375 L 9.246094 12.804688 C 9.371094 11.898438 9.820312 8.671875 9.9375 7.824219 C 10.773438 7.742188 12.296875 7.585938 13.125 7.503906 Z M 8.167969 7.972656 L 5.859375 7.0625 C 5.730469 7.007812 5.570312 7.097656 5.554688 7.242188 C 5.554688 7.242188 5.367188 8.582031 5.367188 8.582031 C 5.355469 8.6875 5.410156 8.78125 5.507812 8.824219 L 7.820312 9.738281 C 7.949219 9.792969 8.105469 9.699219 8.125 9.558594 C 8.125 9.558594 8.3125 8.214844 8.3125 8.214844 C 8.324219 8.113281 8.265625 8.011719 8.167969 7.972656 Z M 7.71875 9.210938 L 5.839844 8.464844 L 5.964844 7.582031 L 7.839844 8.324219 Z M 12.648438 8.003906 L 10.179688 8.253906 C 10.074219 8.265625 9.992188 8.34375 9.976562 8.445312 L 9.789062 9.789062 C 9.769531 9.925781 9.894531 10.058594 10.035156 10.042969 C 10.035156 10.042969 12.507812 9.792969 12.507812 9.792969 C 12.613281 9.777344 12.695312 9.699219 12.707031 9.601562 L 12.894531 8.257812 C 12.917969 8.117188 12.792969 7.988281 12.648438 8.003906 Z M 12.289062 9.363281 L 10.277344 9.566406 L 10.398438 8.683594 L 12.40625 8.480469 Z M 12.289062 9.363281 " fill-opacity="1" fill-rule="nonzero"/></g></svg>